<svg width="22" height="21" viewBox="0 0 22 21" fill="none" xmlns="http://www.w3.org/2000/svg">
<path fill-rule="evenodd" clip-rule="evenodd" d="M4 1C4 0.447715 4.44772 0 5 0H17C17.5523 0 18 0.447715 18 1V3.5H21C21.5523 3.5 22 3.94772 22 4.5C22 8.04062 19.9414 10.2086 17.5067 10.4727C16.599 12.8128 14.5239 14.5597 11.9974 14.928C11.9991 14.9518 12 14.9758 12 15V16H13.5213C13.8574 16 14.171 16.1688 14.356 16.4494L16.3348 19.4494C16.5373 19.7565 16.5549 20.1501 16.3805 20.474C16.2061 20.798 15.8679 21 15.5 21H6.5C6.13777 21 5.80385 20.8041 5.62711 20.4879C5.45037 20.1717 5.45844 19.7847 5.6482 19.4761L7.49322 16.4761C7.67518 16.1803 7.99766 16 8.34502 16H10V15C10 14.9758 10.0009 14.9518 10.0026 14.928C7.47613 14.5597 5.401 12.8128 4.49333 10.4727C2.05859 10.2086 0 8.04062 0 4.5C0 3.94772 0.447715 3.5 1 3.5H4V1ZM6 7.82353C6 10.7099 8.2657 13 11 13C13.7343 13 16 10.7099 16 7.82353V2H6V7.82353ZM4 5.5H2.07356C2.31584 7.05488 3.12356 7.93203 4 8.29689V5.5ZM8.90399 18L8.28899 19H13.6425L12.9829 18H8.90399ZM18 8.29689C18.8764 7.93203 19.6842 7.05488 19.9264 5.5H18V8.29689Z" fill="#60944C"/>
</svg>
