<svg width="305" height="305" viewBox="0 0 305 305" fill="none" xmlns="http://www.w3.org/2000/svg">
<circle opacity="0.1" cx="110" cy="112" r="75" fill="#8DBD7A"/>
<circle opacity="0.05" cx="146" cy="146" r="146" fill="#8DBD7A"/>
<path d="M62.3823 163.785C63.1044 164.347 64.1156 164.347 64.8378 163.785L70.3693 159.485C70.7285 159.205 71.2314 159.206 71.5905 159.485C72.1025 159.883 72.1025 160.657 71.5905 161.055L64.8279 166.315C64.1056 166.877 63.0943 166.877 62.3721 166.315L55.6156 161.06C55.1003 160.659 55.1 159.88 55.6149 159.479C55.9766 159.197 56.4835 159.197 56.8454 159.479L62.3823 163.785Z" fill="#789C62"/>
<path d="M62.3823 168.055C63.1044 168.617 64.1156 168.617 64.8378 168.055L70.3693 163.755C70.7285 163.475 71.2314 163.476 71.5905 163.755C72.1025 164.153 72.1025 164.927 71.5905 165.325L64.8279 170.585C64.1056 171.147 63.0943 171.147 62.3721 170.585L55.6156 165.33C55.1003 164.929 55.1 164.15 55.6149 163.749C55.9766 163.467 56.4835 163.467 56.8454 163.749L62.3823 168.055Z" fill="#789C62"/>
<path d="M64.8284 162.045C64.1059 162.607 63.0943 162.606 62.3722 162.044L56.24 157.27C55.4089 156.626 55.4075 155.372 56.2373 154.727L62.3721 149.955C63.0943 149.393 64.1056 149.393 64.8279 149.955L70.9689 154.731C71.7965 155.375 71.797 156.626 70.97 157.27L64.8284 162.045Z" fill="#789C62"/>
<path d="M68.7824 168.785C69.5045 169.347 70.5156 169.347 71.2378 168.785L76.7694 164.485C77.1285 164.205 77.6314 164.206 77.9905 164.485C78.5025 164.883 78.5025 165.657 77.9905 166.055L71.2279 171.315C70.5057 171.877 69.4943 171.877 68.7721 171.315L62.0156 166.06C61.5003 165.659 61.5 164.88 62.0149 164.479C62.3766 164.197 62.8835 164.197 63.2455 164.479L68.7824 168.785Z" fill="#789C62"/>
<path d="M68.7824 173.055C69.5045 173.617 70.5156 173.617 71.2378 173.055L76.7694 168.755C77.1285 168.475 77.6314 168.476 77.9905 168.755C78.5025 169.153 78.5025 169.927 77.9905 170.325L71.2279 175.585C70.5057 176.147 69.4943 176.147 68.7721 175.585L62.0156 170.33C61.5003 169.929 61.5 169.15 62.0149 168.749C62.3766 168.467 62.8835 168.467 63.2455 168.749L68.7824 173.055Z" fill="#789C62"/>
<path d="M71.2284 167.045C70.5059 167.607 69.4943 167.606 68.7722 167.044L62.64 162.27C61.8089 161.626 61.8076 160.372 62.6373 159.727L68.7721 154.955C69.4943 154.393 70.5057 154.393 71.2279 154.955L77.3689 159.731C78.1965 160.375 78.197 161.626 77.37 162.27L71.2284 167.045Z" fill="#789C62"/>
<path d="M63.01 173.74L63.8048 174.443C64.3494 174.925 64.1894 175.812 63.511 176.073C63.1939 176.195 62.836 176.142 62.5678 175.934L55.0156 170.06C54.5003 169.659 54.5 168.88 55.0149 168.479C55.3766 168.197 55.8835 168.197 56.2455 168.479L63.01 173.74Z" fill="#AACE94"/>
<path d="M63.01 178.01L64.0194 178.875C64.7527 179.503 64.2187 180.7 63.2614 180.574C63.0902 180.552 62.9282 180.484 62.7919 180.378L55.0156 174.33C54.5003 173.929 54.5 173.15 55.0149 172.749C55.3766 172.467 55.8835 172.467 56.2455 172.749L63.01 178.01Z" fill="#AACE94"/>
<path d="M64.2284 171.045C63.5059 171.607 62.4943 171.606 61.7722 171.044L55.64 166.27C54.8089 165.626 54.8076 164.372 55.6373 163.727L61.7721 158.955C62.4943 158.393 63.5057 158.393 64.2279 158.955L70.3689 163.731C71.1965 164.375 71.197 165.626 70.37 166.27L64.2284 171.045Z" fill="#AACE94"/>
<path d="M68.2824 177.785C69.0045 178.347 70.0156 178.347 70.7378 177.785L76.2694 173.485C76.6285 173.205 77.1314 173.206 77.4905 173.485C78.0025 173.883 78.0025 174.657 77.4905 175.055L70.7279 180.315C70.0057 180.877 68.9943 180.877 68.2721 180.315L61.5156 175.06C61.0003 174.659 61 173.88 61.5149 173.479C61.8766 173.197 62.3835 173.197 62.7455 173.479L68.2824 177.785Z" fill="#AACE94"/>
<path d="M68.2824 182.055C69.0045 182.617 70.0156 182.617 70.7378 182.055L76.2694 177.755C76.6285 177.475 77.1314 177.476 77.4905 177.755C78.0025 178.153 78.0025 178.927 77.4905 179.325L70.7279 184.585C70.0057 185.147 68.9943 185.147 68.2721 184.585L61.5156 179.33C61.0003 178.929 61 178.15 61.5149 177.749C61.8766 177.467 62.3835 177.467 62.7455 177.749L68.2824 182.055Z" fill="#AACE94"/>
<path d="M70.7284 176.045C70.0059 176.607 68.9943 176.606 68.2722 176.044L62.14 171.27C61.3089 170.626 61.3076 169.372 62.1373 168.727L68.2721 163.955C68.9943 163.393 70.0057 163.393 70.7279 163.955L76.8689 168.731C77.6965 169.375 77.697 170.626 76.87 171.27L70.7284 176.045Z" fill="#AACE94"/>
<path d="M49.61 175.74L50.2053 176.28C50.6311 176.666 50.6312 177.335 50.2055 177.721C49.8555 178.038 49.3278 178.058 48.9547 177.768L41.6157 172.06C41.1004 171.659 41.1 170.88 41.615 170.479C41.9767 170.197 42.4836 170.197 42.8455 170.479L49.61 175.74Z" fill="#61804E"/>
<path d="M49.61 180.01L50.6212 180.902C51.3341 181.531 50.7987 182.702 49.8567 182.575C49.6886 182.552 49.5295 182.485 49.3956 182.381L41.6157 176.33C41.1004 175.929 41.1 175.15 41.615 174.749C41.9767 174.467 42.4836 174.467 42.8455 174.749L49.61 180.01Z" fill="#61804E"/>
<path d="M50.8285 173.045C50.106 173.607 49.0944 173.606 48.3722 173.044L42.24 168.27C41.4089 167.626 41.4076 166.372 42.2373 165.727L48.3722 160.955C49.0944 160.393 50.1057 160.393 50.8279 160.955L56.969 165.731C57.7965 166.375 57.797 167.626 56.97 168.27L50.8285 173.045Z" fill="#61804E"/>
<path d="M54.7824 179.785C55.5045 180.347 56.5156 180.347 57.2378 179.785L62.7694 175.485C63.1285 175.205 63.6314 175.206 63.9905 175.485C64.5025 175.883 64.5025 176.657 63.9905 177.055L57.2279 182.315C56.5057 182.877 55.4943 182.877 54.7721 182.315L48.0156 177.06C47.5003 176.659 47.5 175.88 48.0149 175.479C48.3766 175.197 48.8835 175.197 49.2455 175.479L54.7824 179.785Z" fill="#61804E"/>
<path d="M54.7824 184.055C55.5045 184.617 56.5156 184.617 57.2378 184.055L62.7694 179.755C63.1285 179.475 63.6314 179.476 63.9905 179.755C64.5025 180.153 64.5025 180.927 63.9905 181.325L57.2279 186.585C56.5057 187.147 55.4943 187.147 54.7721 186.585L48.0156 181.33C47.5003 180.929 47.5 180.15 48.0149 179.749C48.3766 179.467 48.8835 179.467 49.2455 179.749L54.7824 184.055Z" fill="#61804E"/>
<path d="M57.2284 178.045C56.5059 178.607 55.4943 178.606 54.7722 178.044L48.64 173.27C47.8089 172.626 47.8076 171.372 48.6373 170.727L54.7721 165.955C55.4943 165.393 56.5057 165.393 57.2279 165.955L63.3689 170.731C64.1965 171.375 64.197 172.626 63.37 173.27L57.2284 178.045Z" fill="#61804E"/>
<circle opacity="0.2" cx="255" cy="255" r="50" fill="#8DBD7A"/>
<g opacity="0.5">
<path d="M166.111 61.7174C164.439 65.0328 160.127 66.1776 160.127 66.1776C160.127 66.1776 158.528 61.9471 160.199 58.6317C161.871 55.3162 164.545 53.3174 166.183 54.1715C167.822 55.0256 167.782 58.4019 166.111 61.7174Z" fill="#8ED16F"/>
<path d="M163.436 60.5331C164.083 59.5972 164.429 58.651 164.208 58.4197C163.988 58.1884 163.284 58.7596 162.637 59.6956C161.99 60.6315 161.644 61.5778 161.865 61.809C162.086 62.0403 162.789 61.4691 163.436 60.5331Z" fill="black" fill-opacity="0.3"/>
<path d="M160.477 76.8962C156.88 77.2959 153.654 74.2099 153.654 74.2099C153.654 74.2099 156.26 70.4784 159.859 70.0821C163.458 69.6857 166.506 70.8983 166.682 72.7684C166.857 74.6384 164.074 76.4966 160.477 76.8962Z" fill="#8ED16F"/>
<path d="M160.394 73.8381C161.475 73.6115 162.248 73.1294 162.119 72.7612C161.99 72.393 161.009 72.2783 159.927 72.5049C158.846 72.7315 158.074 73.2137 158.203 73.5818C158.331 73.95 159.312 74.0648 160.394 73.8381Z" fill="black" fill-opacity="0.3"/>
<path d="M156.595 89.1447C152.998 89.5443 149.772 86.4584 149.772 86.4584C149.772 86.4584 152.378 82.7268 155.977 82.3305C159.576 81.9342 162.624 83.1468 162.8 85.0168C162.976 86.8868 160.192 88.7477 156.595 89.1447Z" fill="#8ED16F"/>
<path d="M156.506 86.2817C157.587 86.0557 158.359 85.5743 158.23 85.2066C158.101 84.8389 157.12 84.7239 156.038 84.9499C154.957 85.1759 154.185 85.6572 154.314 86.025C154.443 86.3927 155.424 86.5077 156.506 86.2817Z" fill="black" fill-opacity="0.3"/>
<path d="M144.735 76.7135C146.515 79.9177 150.859 80.7907 150.859 80.7907C150.859 80.7907 152.319 76.4611 150.539 73.2568C148.76 70.0526 146.018 68.2298 144.416 69.1796C142.813 70.1295 142.956 73.5092 144.735 76.7135Z" fill="#8ED16F"/>
<path d="M148.761 76.7421C149.131 76.5212 148.979 75.5269 148.42 74.5214C147.862 73.5159 147.109 72.8798 146.739 73.1007C146.368 73.3216 146.521 74.3158 147.079 75.3214C147.638 76.3269 148.391 76.963 148.761 76.7421Z" fill="black" fill-opacity="0.3"/>
<path d="M140.582 88.23C143.309 90.6257 147.708 89.9463 147.708 89.9463C147.708 89.9463 147.685 85.3869 144.96 82.9918C142.235 80.5967 139.047 79.8152 137.834 81.2754C136.622 82.7356 137.855 85.8342 140.582 88.23Z" fill="#8ED16F"/>
<path d="M144.34 86.9203C144.634 86.6265 144.205 85.7562 143.382 84.9765C142.559 84.1967 141.652 83.8028 141.358 84.0965C141.064 84.3903 141.492 85.2606 142.316 86.0404C143.139 86.8201 144.045 87.2141 144.34 86.9203Z" fill="black" fill-opacity="0.3"/>
</g>
<path d="M42.2969 119.122C42.2969 118.207 42.5505 117.427 43.0576 116.784C43.5648 116.141 44.276 115.819 45.1914 115.819C45.5501 115.819 46.4469 116.085 47.8818 116.617C49.3291 117.149 50.6465 117.415 51.834 117.415C52.9225 117.415 53.7389 117.161 54.2832 116.654C54.8398 116.147 55.1182 115.541 55.1182 114.836C55.1182 113.772 54.3018 112.937 52.6689 112.331C52.3597 112.207 51.2217 111.824 49.2549 111.181C46.6201 110.34 44.876 109.344 44.0225 108.193C43.1813 107.043 42.7607 105.583 42.7607 103.814C42.7607 100.982 43.738 98.7738 45.6924 97.1904C47.4489 95.7803 49.6878 95.0752 52.4092 95.0752C52.4339 95.0752 52.4587 95.0752 52.4834 95.0752C54.9202 95.0752 56.8066 95.4525 58.1426 96.207C59.4909 96.9492 60.165 97.9388 60.165 99.1758C60.165 100.017 59.9115 100.716 59.4043 101.272C58.8971 101.829 58.2354 102.107 57.4189 102.107C56.9365 102.107 55.9531 101.879 54.4688 101.421C53.6276 101.174 52.8669 101.044 52.1865 101.031C51.3454 101.031 50.665 101.242 50.1455 101.662C49.626 102.083 49.3662 102.621 49.3662 103.276C49.3662 104.056 50.0651 104.693 51.4629 105.188C52.8607 105.682 54.0915 106.109 55.1553 106.468C57.1839 107.123 58.6868 107.946 59.6641 108.936C61.0371 110.284 61.7236 112.133 61.7236 114.483C61.7236 117.502 60.7217 119.809 58.7178 121.404C56.8623 122.876 54.4193 123.612 51.3887 123.612C49.2116 123.612 47.2448 123.254 45.4883 122.536C43.3607 121.67 42.2969 120.532 42.2969 119.122ZM63.4121 119.92V98.749C63.4121 97.6852 63.6966 96.8688 64.2656 96.2998C64.8346 95.7308 65.5768 95.4463 66.4922 95.4463C67.4323 95.4463 68.1807 95.7246 68.7373 96.2812C69.2939 96.8379 69.5723 97.6605 69.5723 98.749V119.92C69.5723 120.984 69.2816 121.8 68.7002 122.369C68.1312 122.938 67.3952 123.223 66.4922 123.223C65.5521 123.223 64.8037 122.944 64.2471 122.388C63.6904 121.831 63.4121 121.008 63.4121 119.92ZM71.7803 109.325C71.7803 105.194 73.0358 101.786 75.5469 99.1016C78.0579 96.4173 81.237 95.0752 85.084 95.0752C87.8424 95.0752 90.2236 95.5824 92.2275 96.5967C94.4541 97.7347 95.5674 99.2129 95.5674 101.031C95.5674 101.848 95.32 102.491 94.8252 102.961C94.3304 103.431 93.6562 103.666 92.8027 103.666C92.2214 103.666 91.2132 103.19 89.7783 102.237C88.3434 101.285 86.8652 100.809 85.3438 100.809C83.2409 100.809 81.5524 101.613 80.2783 103.221C79.0166 104.829 78.3857 106.864 78.3857 109.325C78.3857 111.675 78.9176 113.624 79.9814 115.17C81.2184 116.964 82.9688 117.867 85.2324 117.879C86.8529 117.879 88.1826 117.396 89.2217 116.432C90.2607 115.467 90.8545 114.174 91.0029 112.554H87.4775C86.488 112.554 85.7272 112.3 85.1953 111.793C84.6634 111.286 84.3975 110.587 84.3975 109.696C84.3975 107.779 85.4118 106.82 87.4404 106.82C87.4528 106.82 87.4652 106.82 87.4775 106.82H94.1201C96.2972 106.82 97.3857 108.082 97.3857 110.605C97.3857 114.354 96.2848 117.434 94.083 119.846C91.807 122.357 88.8073 123.612 85.084 123.612C80.9525 123.612 77.6683 122.215 75.2314 119.419C72.9307 116.784 71.7803 113.42 71.7803 109.325ZM99.6309 119.92V98.749C99.6309 97.6852 99.9154 96.8688 100.484 96.2998C101.053 95.7308 101.796 95.4463 102.711 95.4463C103.626 95.4463 104.437 95.8174 105.142 96.5596C105.389 96.807 105.995 97.5492 106.96 98.7861L117.184 111.719L117.258 98.749C117.258 97.6852 117.542 96.8688 118.111 96.2998C118.68 95.7308 119.423 95.4463 120.338 95.4463C121.278 95.4463 122.026 95.7246 122.583 96.2812C123.14 96.8379 123.418 97.6605 123.418 98.749V119.92C123.418 120.984 123.133 121.8 122.564 122.369C121.995 122.938 121.253 123.223 120.338 123.223C119.447 123.223 118.637 122.845 117.907 122.091C117.623 121.782 117.017 121.046 116.089 119.883L105.865 106.969L105.791 119.92C105.791 120.984 105.5 121.8 104.919 122.369C104.35 122.938 103.614 123.223 102.711 123.223C101.771 123.223 101.022 122.944 100.466 122.388C99.9092 121.831 99.6309 121.008 99.6309 119.92ZM135.979 112.016V98.749C135.979 97.6852 136.264 96.8688 136.833 96.2998C137.414 95.7308 138.157 95.4463 139.06 95.4463C140 95.4463 140.748 95.7246 141.305 96.2812C141.861 96.8379 142.14 97.6605 142.14 98.749V112.016C142.14 113.76 142.684 115.151 143.772 116.19C144.787 117.155 146.092 117.638 147.688 117.638C149.258 117.638 150.582 117.137 151.658 116.135C152.734 115.133 153.272 113.76 153.272 112.016V98.749C153.272 97.6852 153.557 96.8688 154.126 96.2998C154.695 95.7308 155.437 95.4463 156.353 95.4463C157.293 95.4463 158.041 95.7246 158.598 96.2812C159.154 96.8379 159.433 97.6605 159.433 98.749V112.016C159.433 115.566 158.35 118.386 156.186 120.477C154.021 122.567 151.188 123.612 147.688 123.612C144.212 123.612 141.416 122.586 139.301 120.532C137.099 118.405 135.992 115.566 135.979 112.016ZM161.325 119.92V98.7861C161.325 97.7965 161.622 97.0296 162.216 96.4854C162.81 95.9411 163.539 95.6689 164.405 95.6689H171.957C174.518 95.6689 176.658 96.4421 178.377 97.9883C180.282 99.6829 181.234 102.002 181.234 104.946C181.234 107.705 180.443 109.944 178.859 111.663C177.276 113.37 175.043 114.224 172.161 114.224H167.485V119.92C167.485 120.984 167.201 121.8 166.632 122.369C166.063 122.938 165.321 123.223 164.405 123.223C163.465 123.223 162.717 122.944 162.16 122.388C161.604 121.831 161.325 121.008 161.325 119.92ZM167.485 108.676H170.788C172.025 108.676 173.008 108.311 173.738 107.581C174.48 106.839 174.852 105.961 174.852 104.946C174.852 103.759 174.48 102.837 173.738 102.182C173.008 101.514 172.025 101.18 170.788 101.18H167.485V108.676Z" fill="#60944C"/>
<path d="M165.5 149.5L158.5 152L153 137.5C153.333 137.333 154.1 137 154.5 137C154.5 137 155.2 137.2 156 138C157 139 159 138.5 159.5 138.5C159.9 138.5 161 137.167 161.5 137L165.5 149.5Z" fill="#8ED16F"/>
<path d="M161.327 148.257C162.171 147.961 162.368 146.338 161.767 144.632C161.166 142.926 159.995 141.783 159.152 142.079C158.308 142.376 158.111 143.999 158.711 145.705C159.312 147.411 160.483 148.554 161.327 148.257Z" fill="black" fill-opacity="0.1"/>
<path d="M56.472 127.832V129.192H52.616V139H51.16V129.192H47.304V127.832H56.472ZM60.8293 129.272C61.8426 128.205 63.1919 127.672 64.8773 127.672C66.5626 127.672 67.9119 128.205 68.9253 129.272C69.9386 130.339 70.4613 131.72 70.4933 133.416C70.4613 135.112 69.9386 136.493 68.9253 137.56C67.9119 138.627 66.5626 139.16 64.8773 139.16C63.1919 139.16 61.8426 138.627 60.8293 137.56C59.8159 136.493 59.2933 135.112 59.2613 133.416C59.2933 131.72 59.8159 130.339 60.8293 129.272ZM60.7173 133.416C60.7173 134.685 61.0853 135.736 61.8213 136.568C62.5679 137.389 63.5813 137.8 64.8613 137.8C66.1519 137.8 67.1706 137.389 67.9173 136.568C68.6639 135.736 69.0373 134.685 69.0373 133.416C69.0373 132.147 68.6639 131.101 67.9173 130.28C67.1706 129.448 66.1519 129.032 64.8613 129.032C63.5813 129.032 62.5679 129.448 61.8213 130.28C61.0853 131.101 60.7173 132.147 60.7173 133.416ZM88.9142 130.152C87.8156 129.427 86.6049 129.064 85.2822 129.064C83.9596 129.064 82.9249 129.469 82.1782 130.28C81.4316 131.091 81.0582 132.136 81.0582 133.416C81.0582 134.696 81.4316 135.741 82.1782 136.552C82.9249 137.363 83.9596 137.768 85.2822 137.768C86.6049 137.768 87.8156 137.405 88.9142 136.68H88.9942V138.12C87.8422 138.813 86.5782 139.16 85.2022 139.16C83.5702 139.16 82.2262 138.643 81.1702 137.608C80.1249 136.563 79.6022 135.165 79.6022 133.416C79.6022 131.667 80.1249 130.275 81.1702 129.24C82.2262 128.195 83.5702 127.672 85.2022 127.672C86.5782 127.672 87.8422 128.019 88.9942 128.712V130.152H88.9142ZM93.9261 129.272C94.9395 128.205 96.2888 127.672 97.9741 127.672C99.6595 127.672 101.009 128.205 102.022 129.272C103.035 130.339 103.558 131.72 103.59 133.416C103.558 135.112 103.035 136.493 102.022 137.56C101.009 138.627 99.6595 139.16 97.9741 139.16C96.2888 139.16 94.9395 138.627 93.9261 137.56C92.9128 136.493 92.3901 135.112 92.3581 133.416C92.3901 131.72 92.9128 130.339 93.9261 129.272ZM93.8141 133.416C93.8141 134.685 94.1821 135.736 94.9181 136.568C95.6648 137.389 96.6781 137.8 97.9581 137.8C99.2488 137.8 100.267 137.389 101.014 136.568C101.761 135.736 102.134 134.685 102.134 133.416C102.134 132.147 101.761 131.101 101.014 130.28C100.267 129.448 99.2488 129.032 97.9581 129.032C96.6781 129.032 95.6648 129.448 94.9181 130.28C94.1821 131.101 93.8141 132.147 93.8141 133.416ZM115.887 127.832H117.343V139H115.551L109.087 129.8H109.055V139H107.599V127.832H109.391L115.839 137.016H115.887V127.832ZM129.963 127.832V129.192H126.107V139H124.651V129.192H120.795V127.832H129.963ZM134.88 127.832V139H133.424V127.832H134.88ZM147.874 127.832H149.33V139H147.538L141.074 129.8H141.042V139H139.586V127.832H141.378L147.826 137.016H147.874V127.832ZM161.678 127.832H163.134V134.808C163.134 135.533 162.995 136.184 162.718 136.76C162.451 137.325 162.089 137.779 161.63 138.12C161.182 138.461 160.691 138.723 160.158 138.904C159.635 139.075 159.097 139.16 158.542 139.16C157.987 139.16 157.443 139.075 156.91 138.904C156.387 138.723 155.897 138.461 155.438 138.12C154.99 137.779 154.627 137.325 154.35 136.76C154.083 136.184 153.95 135.533 153.95 134.808V127.832H155.406V134.856C155.406 135.795 155.715 136.525 156.334 137.048C156.953 137.571 157.689 137.832 158.542 137.832C159.395 137.832 160.131 137.571 160.75 137.048C161.369 136.525 161.678 135.795 161.678 134.856V127.832ZM175.499 129.192H169.211V132.728H174.923V134.088H169.211V137.64H175.499V139H167.755V127.832H175.499V129.192Z" fill="#4F5C49"/>
</svg>
