<svg width="22" height="22" viewBox="0 0 22 22" fill="none" xmlns="http://www.w3.org/2000/svg">
<path fill-rule="evenodd" clip-rule="evenodd" d="M21.9758 0.780704C22.0971 1.31952 21.7585 1.85459 21.2197 1.97583L16.0002 3.15022V10.0002H21.0002C21.5525 10.0002 22.0002 10.4479 22.0002 11.0002C22.0002 13.9572 21.1067 16.7174 19.2358 18.7487C17.3525 20.7936 14.57 22.0002 11.0002 22.0002C7.43038 22.0002 4.64795 20.7936 2.76466 18.7487C0.893768 16.7174 0.000216686 13.9572 0.000216686 11.0002C0.000216686 10.4479 0.447932 10.0002 1.00022 10.0002H2.00022V6.30022L1.21973 6.47583C0.680914 6.59706 0.14584 6.25854 0.0246069 5.71973C-0.0966263 5.18091 0.24189 4.64584 0.780704 4.52461L2.00022 4.25022V4.00022C2.00022 3.44793 2.44793 3.00022 3.00022 3.00022C3.48553 3.00022 3.89009 3.34593 3.98108 3.80452L6.00022 3.35022V3.00022C6.00022 2.44793 6.44793 2.00022 7.00022 2.00022C7.51912 2.00022 7.94572 2.39545 7.99539 2.9013L10.0002 2.45022V2.00022C10.0002 1.44793 10.4479 1.00022 11.0002 1.00022C11.5525 1.00022 12.0002 1.44793 12.0002 2.00022L14.0002 1.55022V1.00022C14.0002 0.447932 14.4479 0.000216686 15.0002 0.000216686C15.5525 0.000216686 16.0002 0.447932 16.0002 1.00022V1.10022L20.7807 0.0246069C21.3195 -0.0966263 21.8546 0.24189 21.9758 0.780704ZM14.0002 3.60022L12.0002 4.05022V10.0002H14.0002V3.60022ZM2.04058 12.0002C2.21673 14.1471 2.96672 16.0159 4.23579 17.3938C5.68584 18.9683 7.9034 20.0002 11.0002 20.0002C14.097 20.0002 16.3146 18.9683 17.7646 17.3938C19.0337 16.0159 19.7837 14.1471 19.9599 12.0002H2.04058ZM4.00022 10.0002H6.00022V5.40022L4.00022 5.85022V10.0002ZM8.00022 4.95022V10.0002H10.0002V4.50022L8.00022 4.95022Z" fill="#60944C"/>
</svg>
