<svg width="176" height="107" viewBox="0 0 176 107" fill="none" xmlns="http://www.w3.org/2000/svg">
<path d="M11.8265 33.8539C16.6423 37.3252 23.6044 35.7698 23.6044 35.7698C23.6044 35.7698 22.7541 28.589 17.9383 25.1177C13.1225 21.6465 7.85558 20.782 6.16036 23.2019C4.46515 25.6219 7.01074 30.3827 11.8265 33.8539Z" fill="#8ED16F"/>
<path d="M14.7482 30.2018C13.1401 29.351 11.9519 28.2636 12.0943 27.7728C12.2367 27.2821 13.6558 27.5739 15.2639 28.4246C16.8721 29.2753 18.0603 30.3628 17.9179 30.8535C17.7755 31.3443 16.3564 31.0525 14.7482 30.2018Z" fill="black" fill-opacity="0.3"/>
<path d="M31.0111 51.2342C36.4088 49.1491 38.7101 42.3927 38.7101 42.3927C38.7101 42.3927 32.2617 39.0202 26.8637 41.1113C21.4657 43.2025 18.0354 47.1702 19.1647 49.9528C20.294 52.7354 25.6134 53.3193 31.0111 51.2342Z" fill="#8ED16F"/>
<path d="M28.8737 46.8347C27.1724 47.3106 25.7212 47.1959 25.6325 46.5787C25.5437 45.9614 26.851 45.0753 28.5523 44.5994C30.2536 44.1236 31.7048 44.2382 31.7935 44.8555C31.8823 45.4728 30.575 46.3589 28.8737 46.8347Z" fill="black" fill-opacity="0.3"/>
<path d="M45.5483 65.7494C50.946 63.6644 53.2473 56.908 53.2473 56.908C53.2473 56.908 46.7988 53.5354 41.4008 55.6266C36.0029 57.7178 32.5726 61.6854 33.7019 64.468C34.8312 67.2507 40.1535 67.8378 45.5483 65.7494Z" fill="#8ED16F"/>
<path d="M43.5642 61.6217C41.8633 62.0984 40.4131 61.9848 40.3252 61.3678C40.2373 60.7509 41.5449 59.8643 43.2459 59.3875C44.9468 58.9108 46.3969 59.0244 46.4849 59.6414C46.5728 60.2583 45.2652 61.1449 43.5642 61.6217Z" fill="black" fill-opacity="0.3"/>
<path d="M53.2086 39.3691C53.0468 45.2269 47.5269 49.6684 47.5269 49.6684C47.5269 49.6684 42.2642 44.6021 42.426 38.7443C42.5879 32.8866 45.1338 28.279 48.1078 28.445C51.0817 28.611 53.3705 33.5113 53.2086 39.3691Z" fill="#8ED16F"/>
<path d="M47.5185 42.3777C46.8303 42.3373 46.3137 40.8143 46.3646 38.976C46.4155 37.1377 47.0147 35.6802 47.7028 35.7206C48.3909 35.761 48.9075 37.284 48.8566 39.1223C48.8057 40.9606 48.2066 42.4181 47.5185 42.3777Z" fill="black" fill-opacity="0.3"/>
<path d="M67.5922 52.6451C65.4895 58.0547 58.7481 60.334 58.7481 60.334C58.7481 60.334 55.4193 53.8485 57.5188 48.4417C59.6183 43.0349 63.5662 39.5751 66.3629 40.7528C69.1596 41.9305 69.6949 47.2356 67.5922 52.6451Z" fill="#8ED16F"/>
<path d="M61.2951 53.5579C60.6608 53.3582 60.6275 51.8074 61.2207 50.0941C61.8139 48.3807 62.8091 47.1537 63.4434 47.3534C64.0777 47.5532 64.111 49.104 63.5177 50.8173C62.9245 52.5306 61.9294 53.7576 61.2951 53.5579Z" fill="black" fill-opacity="0.3"/>
<path d="M160.834 60.9877C154.948 61.7595 149.557 57.0879 149.557 57.0879C149.557 57.0879 153.711 51.1696 159.598 50.3978C165.484 49.626 170.53 51.3631 170.875 54.2975C171.22 57.232 166.721 60.2158 160.834 60.9877Z" fill="#8ED16F"/>
<path d="M159.995 56.3866C161.814 56.4004 163.376 56.0066 163.483 55.5071C163.59 55.0075 162.203 54.5913 160.383 54.5775C158.564 54.5636 157.002 54.9574 156.895 55.457C156.788 55.9566 158.175 56.3728 159.995 56.3866Z" fill="black" fill-opacity="0.3"/>
<path d="M135.702 67.1891C131.939 62.7933 133.117 55.7538 133.117 55.7538C133.117 55.7538 140.394 55.8433 144.154 60.2446C147.914 64.6459 149.052 69.7658 146.738 71.6799C144.424 73.5939 139.465 71.5849 135.702 67.1891Z" fill="#8ED16F"/>
<path d="M139.67 64.3298C140.942 65.5557 142.274 66.143 142.645 65.6417C143.016 65.1404 142.285 63.7402 141.013 62.5144C139.741 61.2885 138.409 60.7012 138.038 61.2025C137.667 61.7038 138.398 63.104 139.67 64.3298Z" fill="black" fill-opacity="0.3"/>
<path d="M116.019 73.0727C112.256 68.6769 113.435 61.6374 113.435 61.6374C113.435 61.6374 120.711 61.7268 124.472 66.1281C128.232 70.5294 129.37 75.6494 127.056 77.5634C124.742 79.4775 119.778 77.47 116.019 73.0727Z" fill="#8ED16F"/>
<path d="M119.723 70.3798C120.995 71.6063 122.325 72.1941 122.695 71.6926C123.065 71.1912 122.335 69.7905 121.063 68.564C119.792 67.3375 118.461 66.7497 118.091 67.2512C117.721 67.7526 118.452 69.1534 119.723 70.3798Z" fill="black" fill-opacity="0.3"/>
<path d="M95.6254 87.32C91.8625 82.9242 93.0411 75.8847 93.0411 75.8847C93.0411 75.8847 100.318 75.9742 104.078 80.3755C107.838 84.7768 108.976 89.8967 106.662 91.8108C104.348 93.7249 99.3761 91.7204 95.6254 87.32Z" fill="#8ED16F"/>
<path d="M99.3156 84.6258C100.587 85.8523 101.917 86.44 102.287 85.9386C102.657 85.4372 101.927 84.0364 100.655 82.8099C99.3842 81.5834 98.0536 80.9957 97.6836 81.4971C97.3136 81.9986 98.0442 83.3993 99.3156 84.6258Z" fill="black" fill-opacity="0.3"/>
<path d="M73.5495 91.034C69.7865 86.6382 70.9652 79.5987 70.9652 79.5987C70.9652 79.5987 78.2418 79.6882 82.0021 84.0895C85.7624 88.4908 86.9004 93.6107 84.5864 95.5248C82.2724 97.4389 77.3098 95.4353 73.5495 91.034Z" fill="#8ED16F"/>
<path d="M77.5969 88.2198C78.869 89.4457 80.2009 90.0331 80.5718 89.5317C80.9427 89.0304 80.2122 87.6303 78.9401 86.4044C77.668 85.1785 76.3361 84.5912 75.9652 85.0925C75.5943 85.5938 76.3249 86.994 77.5969 88.2198Z" fill="black" fill-opacity="0.3"/>
<path d="M121.787 46.2151C119.152 51.4489 121.904 57.9771 121.904 57.9771C121.904 57.9771 128.94 56.0131 131.576 50.7794C134.212 45.5457 134.156 40.2819 131.459 39.0174C128.763 37.753 124.423 40.9814 121.787 46.2151Z" fill="#8ED16F"/>
<path d="M125.37 51.5627C125.995 51.8535 127.172 50.7577 127.999 49.1152C128.826 47.4727 128.99 45.9054 128.365 45.6146C127.74 45.3238 126.563 46.4196 125.736 48.0621C124.909 49.7046 124.745 51.2719 125.37 51.5627Z" fill="black" fill-opacity="0.3"/>
<path d="M57.2171 67.4825C54.5812 72.7162 57.334 79.2445 57.334 79.2445C57.334 79.2445 64.3701 77.2805 67.006 72.0468C69.6419 66.813 69.5859 61.5492 66.8891 60.2848C64.1922 59.0203 59.853 62.2488 57.2171 67.4825Z" fill="#8ED16F"/>
<path d="M60.7851 72.8285C61.4101 73.1193 62.5873 72.0236 63.4144 70.3811C64.2415 68.7385 64.4053 67.1713 63.7803 66.8805C63.1554 66.5897 61.9782 67.6854 61.1511 69.3279C60.324 70.9705 60.1601 72.5377 60.7851 72.8285Z" fill="black" fill-opacity="0.3"/>
<path d="M100.285 57.3193C99.5706 63.079 104.424 68.2831 104.424 68.2831C104.424 68.2831 110.431 64.1523 111.147 58.3966C111.863 52.6409 110.029 47.7225 107.008 47.4328C103.987 47.1431 101 51.5596 100.285 57.3193Z" fill="#8ED16F"/>
<path d="M105.396 61.1096C106.049 61.2346 106.814 59.8851 107.104 58.0954C107.395 56.3057 107.101 54.7535 106.448 54.6285C105.794 54.5035 105.03 55.8529 104.739 57.6427C104.449 59.4324 104.743 60.9846 105.396 61.1096Z" fill="black" fill-opacity="0.3"/>
<path d="M78.5739 67.6009C77.8592 73.3606 82.7131 78.5647 82.7131 78.5647C82.7131 78.5647 88.7198 74.4339 89.4359 68.6782C90.1521 62.9225 88.3175 58.0041 85.2968 57.7144C82.2761 57.4247 79.2712 61.8702 78.5739 67.6009Z" fill="#8ED16F"/>
<path d="M83.6852 71.3924C84.3383 71.5174 85.1032 70.1679 85.3936 68.3782C85.684 66.5885 85.3899 65.0363 84.7368 64.9113C84.0836 64.7862 83.3187 66.1357 83.0283 67.9254C82.7379 69.7151 83.032 71.2673 83.6852 71.3924Z" fill="black" fill-opacity="0.3"/>
</svg>
