<svg width="22" height="22" viewBox="0 0 22 22" fill="none" xmlns="http://www.w3.org/2000/svg">
<path fill-rule="evenodd" clip-rule="evenodd" d="M2.64049 14.3409C2.93083 14.4904 3.23779 14.629 3.55754 14.7569C4.39913 15.0935 5.36623 15.3707 6.42272 15.5773C6.62926 16.6338 6.90646 17.6009 7.24309 18.4425C7.37099 18.7622 7.50959 19.0692 7.65908 19.3595C5.3757 18.4461 3.55388 16.6243 2.64049 14.3409ZM11 22C4.92487 22 0 17.0751 0 11C0 4.92487 4.92487 0 11 0C17.0751 0 22 4.92487 22 11C22 17.0751 17.0751 22 11 22ZM19.3595 14.3409C18.4461 16.6243 16.6243 18.4461 14.3409 19.3595C14.4904 19.0692 14.629 18.7622 14.7569 18.4425C15.0935 17.6009 15.3707 16.6338 15.5773 15.5773C16.6338 15.3707 17.6009 15.0935 18.4425 14.7569C18.7622 14.629 19.0692 14.4904 19.3595 14.3409ZM19.3595 7.65908C18.4461 5.3757 16.6243 3.55388 14.3409 2.64049C14.4904 2.93083 14.629 3.23779 14.7569 3.55754C15.0935 4.39913 15.3707 5.36623 15.5773 6.42272C16.6338 6.62926 17.6009 6.90646 18.4425 7.24309C18.7622 7.37099 19.0692 7.50959 19.3595 7.65908ZM15.8824 8.53473C16.5523 8.69452 17.1626 8.88523 17.6997 9.10005C18.5348 9.43408 19.1435 9.80683 19.527 10.1696C19.9085 10.5303 20 10.8113 20 11C20 11.1887 19.9085 11.4697 19.527 11.8304C19.1435 12.1932 18.5348 12.5659 17.6997 12.9C17.1626 13.1148 16.5523 13.3055 15.8824 13.4653C15.9596 12.671 16 11.8453 16 11C16 10.1547 15.9596 9.32901 15.8824 8.53473ZM13.4653 6.11757C13.3055 5.44765 13.1148 4.83737 12.9 4.30032C12.5659 3.46523 12.1932 2.85653 11.8304 2.47296C11.4697 2.0915 11.1887 2 11 2C10.8113 2 10.5303 2.0915 10.1696 2.47296C9.80683 2.85653 9.43408 3.46523 9.10005 4.30032C8.88523 4.83737 8.69452 5.44765 8.53473 6.11757C9.32901 6.04041 10.1547 6 11 6C11.8453 6 12.671 6.04041 13.4653 6.11757ZM8.1697 8.1697C9.05797 8.06004 10.0083 8 11 8C11.9917 8 12.942 8.06004 13.8303 8.1697C13.94 9.05797 14 10.0083 14 11C14 11.9917 13.94 12.942 13.8303 13.8303C12.942 13.94 11.9917 14 11 14C10.0083 14 9.05797 13.94 8.1697 13.8303C8.06004 12.942 8 11.9917 8 11C8 10.0083 8.06004 9.05797 8.1697 8.1697ZM6.11757 8.53473C5.44765 8.69452 4.83737 8.88523 4.30032 9.10005C3.46523 9.43408 2.85653 9.80683 2.47296 10.1696C2.0915 10.5303 2 10.8113 2 11C2 11.1887 2.0915 11.4697 2.47296 11.8304C2.85653 12.1932 3.46523 12.5659 4.30032 12.9C4.83737 13.1148 5.44765 13.3055 6.11757 13.4653C6.04041 12.671 6 11.8453 6 11C6 10.1547 6.0404 9.32901 6.11757 8.53473ZM6.42272 6.42272C6.62926 5.36623 6.90646 4.39913 7.24309 3.55754C7.37099 3.23779 7.50959 2.93083 7.65908 2.64049C5.3757 3.55388 3.55388 5.3757 2.64049 7.65908C2.93083 7.50959 3.23779 7.37099 3.55754 7.24309C4.39913 6.90646 5.36623 6.62926 6.42272 6.42272ZM8.53473 15.8824C8.69452 16.5523 8.88523 17.1626 9.10005 17.6997C9.43408 18.5348 9.80683 19.1435 10.1696 19.527C10.5303 19.9085 10.8113 20 11 20C11.1887 20 11.4697 19.9085 11.8304 19.527C12.1932 19.1435 12.5659 18.5348 12.9 17.6997C13.1148 17.1626 13.3055 16.5523 13.4653 15.8824C12.671 15.9596 11.8453 16 11 16C10.1547 16 9.32901 15.9596 8.53473 15.8824Z" fill="#60944C"/>
</svg>
