<svg width="22" height="22" viewBox="0 0 22 22" fill="none" xmlns="http://www.w3.org/2000/svg">
<path fill-rule="evenodd" clip-rule="evenodd" d="M12.5171 1C12.5171 1.00001 12.5172 1.00002 12.5172 1.00002L15.1705 5.59575L15.2528 5.28867C15.3957 4.75521 15.9441 4.43862 16.4775 4.58156C17.011 4.7245 17.3276 5.27283 17.1846 5.8063L16.5096 8.32566C16.4976 8.41759 16.473 8.50753 16.4364 8.59273C16.3597 8.82537 16.1999 9.02248 15.9867 9.14561C15.757 9.27822 15.484 9.31416 15.2278 9.24551L12.4958 8.51341C11.9623 8.37046 11.6457 7.82211 11.7887 7.28865C11.9317 6.75519 12.48 6.43861 13.0135 6.58156L13.5066 6.7137L10.7851 2.00001L10.7851 1.99999V2.00001L8.13509 6.92139C7.87325 7.40766 7.26679 7.5896 6.78052 7.32776C6.29425 7.06592 6.11231 6.45945 6.37415 5.97318L9.02415 1.0518L9.02416 1.05179C9.76663 -0.32705 11.7341 -0.356281 12.5171 1ZM6.25191 9.87251C6.22797 9.55699 6.05504 9.25794 5.76164 9.08535C5.60107 8.9909 5.42493 8.94639 5.25125 8.94714C5.16109 8.94587 5.06925 8.95687 4.97785 8.98136L2.2458 9.71341C1.71234 9.85635 1.39575 10.4047 1.53869 10.9382C1.68164 11.4716 2.22997 11.7882 2.76344 11.6453L3.15779 11.5396L0.279183 16.4332C0.279179 16.4333 0.279174 16.4333 0.27917 16.4333C-0.505126 17.7665 0.456249 19.4473 2.00304 19.4473H7.25462C7.8069 19.4473 8.25462 18.9996 8.25462 18.4473C8.25462 17.895 7.8069 17.4473 7.25462 17.4473L2.00304 17.4473L4.8941 12.5325L5.00279 12.9382C5.14574 13.4716 5.69407 13.7882 6.22754 13.6453C6.761 13.5023 7.07759 12.954 6.93465 12.4205L6.25191 9.87251ZM16.7305 11.0956C17.2009 10.8062 17.8168 10.9528 18.1063 11.4232L21.1684 16.3991C21.9884 17.7316 21.0297 19.4473 19.4651 19.4473H13.6688L13.9617 19.7402C14.3523 20.1307 14.3523 20.7639 13.9617 21.1544C13.5712 21.5449 12.938 21.5449 12.5475 21.1544L10.5475 19.1544C10.36 18.9669 10.2546 18.7125 10.2546 18.4473C10.2546 18.1821 10.36 17.9277 10.5475 17.7402L12.5475 15.7402C12.938 15.3497 13.5712 15.3497 13.9617 15.7402C14.3523 16.1307 14.3523 16.7639 13.9617 17.1544L13.6688 17.4473H19.4651L16.403 12.4714C16.1135 12.001 16.2602 11.3851 16.7305 11.0956Z" fill="#60944C"/>
</svg>
