<svg width="22" height="21" viewBox="0 0 22 21" fill="none" xmlns="http://www.w3.org/2000/svg">
<path fill-rule="evenodd" clip-rule="evenodd" d="M7.42182 0.553801C7.30324 0.315977 7.09488 0.135131 6.84274 0.051194C6.5906 -0.0327432 6.31542 -0.0128677 6.07796 0.106432C2.47506 1.91652 0 5.65412 0 9.97162C0 10.193 0.00651824 10.413 0.0193859 10.6313C0.0350003 10.8963 0.155321 11.1442 0.35384 11.3204C0.552358 11.4966 0.812783 11.5866 1.07774 11.5707L6.56803 11.2402C7.11882 11.2071 7.53867 10.734 7.50621 10.1832C7.50209 10.1133 7.5 10.0428 7.5 9.97162C7.5 8.59633 8.28704 7.40521 9.43602 6.82796C9.92847 6.58056 10.1279 5.98138 9.88203 5.48819L7.42182 0.553801ZM5.54061 9.29843L2.01152 9.51086C2.16097 6.52772 3.75356 3.92592 6.1046 2.39419L7.6881 5.57017C6.52792 6.44856 5.72537 7.77784 5.54061 9.29843Z" fill="#60944C"/>
<path fill-rule="evenodd" clip-rule="evenodd" d="M15.922 0.106432C15.6846 -0.0128677 15.4094 -0.0327432 15.1573 0.051194C14.9051 0.135131 14.6968 0.315977 14.5782 0.553801L12.118 5.48819C11.8721 5.98138 12.0715 6.58056 12.564 6.82796C13.713 7.40521 14.5 8.59633 14.5 9.97162C14.5 10.0428 14.4979 10.1133 14.4938 10.1832C14.4613 10.734 14.8812 11.2071 15.432 11.2402L20.9223 11.5707C21.1872 11.5866 21.4476 11.4966 21.6462 11.3204C21.8447 11.1442 21.965 10.8963 21.9806 10.6313C21.9935 10.413 22 10.193 22 9.97162C22 5.65412 19.5249 1.91652 15.922 0.106432ZM14.3119 5.57017L15.8954 2.39419C18.2464 3.92592 19.839 6.52772 19.9885 9.51086L16.4594 9.29843C16.2746 7.77784 15.4721 6.44856 14.3119 5.57017Z" fill="#60944C"/>
<path fill-rule="evenodd" clip-rule="evenodd" d="M9.07312 12.9047C8.85161 12.7578 8.5807 12.705 8.32025 12.7582C8.05979 12.8114 7.83122 12.9661 7.68504 13.1881L4.65427 17.7914C4.35132 18.2516 4.47759 18.8701 4.93665 19.1746C6.67532 20.3282 8.76084 21 11 21C13.2392 21 15.3247 20.3282 17.0634 19.1746C17.5224 18.8701 17.6487 18.2516 17.3457 17.7914L14.315 13.1881C14.1688 12.9661 13.9402 12.8114 13.6798 12.7582C13.4193 12.705 13.1484 12.7578 12.9269 12.9047C12.3745 13.2712 11.7135 13.4844 11 13.4844C10.2865 13.4844 9.62546 13.2712 9.07312 12.9047ZM6.90312 18.0127L8.85447 15.0489C9.51422 15.3293 10.2397 15.4844 11 15.4844C11.7603 15.4844 12.4858 15.3293 13.1455 15.0489L15.0969 18.0127C13.8685 18.644 12.4766 19 11 19C9.52335 19 8.13147 18.644 6.90312 18.0127Z" fill="#60944C"/>
<path d="M12.5018 10C12.5018 10.8284 11.8303 11.5 11.0018 11.5C10.1734 11.5 9.50183 10.8284 9.50183 10C9.50183 9.17157 10.1734 8.5 11.0018 8.5C11.8303 8.5 12.5018 9.17157 12.5018 10Z" fill="#60944C"/>
</svg>
