<svg width="305" height="305" viewBox="0 0 305 305" fill="none" xmlns="http://www.w3.org/2000/svg">
<path d="M62.3823 163.785C63.1044 164.347 64.1156 164.347 64.8378 163.785L70.3693 159.485C70.7285 159.205 71.2314 159.206 71.5905 159.485C72.1025 159.883 72.1025 160.657 71.5905 161.055L64.8279 166.315C64.1056 166.877 63.0943 166.877 62.3721 166.315L55.6156 161.06C55.1003 160.659 55.1 159.88 55.6149 159.479C55.9766 159.197 56.4835 159.197 56.8454 159.479L62.3823 163.785Z" fill="#789C62"/>
<path d="M62.3823 168.055C63.1044 168.617 64.1156 168.617 64.8378 168.055L70.3693 163.755C70.7285 163.475 71.2314 163.476 71.5905 163.755C72.1025 164.153 72.1025 164.927 71.5905 165.325L64.8279 170.585C64.1056 171.147 63.0943 171.147 62.3721 170.585L55.6156 165.33C55.1003 164.929 55.1 164.15 55.6149 163.749C55.9766 163.467 56.4835 163.467 56.8454 163.749L62.3823 168.055Z" fill="#789C62"/>
<path d="M64.8284 162.045C64.1059 162.607 63.0943 162.606 62.3722 162.044L56.24 157.27C55.4089 156.626 55.4075 155.372 56.2373 154.727L62.3721 149.955C63.0943 149.393 64.1056 149.393 64.8279 149.955L70.9689 154.731C71.7965 155.375 71.797 156.626 70.97 157.27L64.8284 162.045Z" fill="#789C62"/>
<path d="M68.7824 168.785C69.5045 169.347 70.5156 169.347 71.2378 168.785L76.7694 164.485C77.1285 164.205 77.6314 164.206 77.9905 164.485C78.5025 164.883 78.5025 165.657 77.9905 166.055L71.2279 171.315C70.5057 171.877 69.4943 171.877 68.7721 171.315L62.0156 166.06C61.5003 165.659 61.5 164.88 62.0149 164.479C62.3766 164.197 62.8835 164.197 63.2455 164.479L68.7824 168.785Z" fill="#789C62"/>
<path d="M68.7824 173.055C69.5045 173.617 70.5156 173.617 71.2378 173.055L76.7694 168.755C77.1285 168.475 77.6314 168.476 77.9905 168.755C78.5025 169.153 78.5025 169.927 77.9905 170.325L71.2279 175.585C70.5057 176.147 69.4943 176.147 68.7721 175.585L62.0156 170.33C61.5003 169.929 61.5 169.15 62.0149 168.749C62.3766 168.467 62.8835 168.467 63.2455 168.749L68.7824 173.055Z" fill="#789C62"/>
<path d="M71.2284 167.045C70.5059 167.607 69.4943 167.606 68.7722 167.044L62.64 162.27C61.8089 161.626 61.8076 160.372 62.6373 159.727L68.7721 154.955C69.4943 154.393 70.5057 154.393 71.2279 154.955L77.3689 159.731C78.1965 160.375 78.197 161.626 77.37 162.27L71.2284 167.045Z" fill="#789C62"/>
<path d="M63.01 173.74L63.8048 174.443C64.3494 174.925 64.1894 175.812 63.511 176.073C63.1939 176.195 62.836 176.142 62.5678 175.934L55.0156 170.06C54.5003 169.659 54.5 168.88 55.0149 168.479C55.3766 168.197 55.8835 168.197 56.2455 168.479L63.01 173.74Z" fill="#AACE94"/>
<path d="M63.01 178.01L64.0194 178.875C64.7527 179.503 64.2187 180.7 63.2614 180.574C63.0902 180.552 62.9282 180.484 62.7919 180.378L55.0156 174.33C54.5003 173.929 54.5 173.15 55.0149 172.749C55.3766 172.467 55.8835 172.467 56.2455 172.749L63.01 178.01Z" fill="#AACE94"/>
<path d="M64.2284 171.045C63.5059 171.607 62.4943 171.606 61.7722 171.044L55.64 166.27C54.8089 165.626 54.8076 164.372 55.6373 163.727L61.7721 158.955C62.4943 158.393 63.5057 158.393 64.2279 158.955L70.3689 163.731C71.1965 164.375 71.197 165.626 70.37 166.27L64.2284 171.045Z" fill="#AACE94"/>
<path d="M68.2824 177.785C69.0045 178.347 70.0156 178.347 70.7378 177.785L76.2694 173.485C76.6285 173.205 77.1314 173.206 77.4905 173.485C78.0025 173.883 78.0025 174.657 77.4905 175.055L70.7279 180.315C70.0057 180.877 68.9943 180.877 68.2721 180.315L61.5156 175.06C61.0003 174.659 61 173.88 61.5149 173.479C61.8766 173.197 62.3835 173.197 62.7455 173.479L68.2824 177.785Z" fill="#AACE94"/>
<path d="M68.2824 182.055C69.0045 182.617 70.0156 182.617 70.7378 182.055L76.2694 177.755C76.6285 177.475 77.1314 177.476 77.4905 177.755C78.0025 178.153 78.0025 178.927 77.4905 179.325L70.7279 184.585C70.0057 185.147 68.9943 185.147 68.2721 184.585L61.5156 179.33C61.0003 178.929 61 178.15 61.5149 177.749C61.8766 177.467 62.3835 177.467 62.7455 177.749L68.2824 182.055Z" fill="#AACE94"/>
<path d="M70.7284 176.045C70.0059 176.607 68.9943 176.606 68.2722 176.044L62.14 171.27C61.3089 170.626 61.3076 169.372 62.1373 168.727L68.2721 163.955C68.9943 163.393 70.0057 163.393 70.7279 163.955L76.8689 168.731C77.6965 169.375 77.697 170.626 76.87 171.27L70.7284 176.045Z" fill="#AACE94"/>
<path d="M49.61 175.74L50.2053 176.28C50.6311 176.666 50.6312 177.335 50.2055 177.721C49.8555 178.038 49.3278 178.058 48.9547 177.768L41.6157 172.06C41.1004 171.659 41.1 170.88 41.615 170.479C41.9767 170.197 42.4836 170.197 42.8455 170.479L49.61 175.74Z" fill="#61804E"/>
<path d="M49.61 180.01L50.6212 180.902C51.3341 181.531 50.7987 182.702 49.8567 182.575C49.6886 182.552 49.5295 182.485 49.3956 182.381L41.6157 176.33C41.1004 175.929 41.1 175.15 41.615 174.749C41.9767 174.467 42.4836 174.467 42.8455 174.749L49.61 180.01Z" fill="#61804E"/>
<path d="M50.8285 173.045C50.106 173.607 49.0944 173.606 48.3722 173.044L42.24 168.27C41.4089 167.626 41.4076 166.372 42.2373 165.727L48.3722 160.955C49.0944 160.393 50.1057 160.393 50.8279 160.955L56.969 165.731C57.7965 166.375 57.797 167.626 56.97 168.27L50.8285 173.045Z" fill="#61804E"/>
<path d="M54.7824 179.785C55.5045 180.347 56.5156 180.347 57.2378 179.785L62.7694 175.485C63.1285 175.205 63.6314 175.206 63.9905 175.485C64.5025 175.883 64.5025 176.657 63.9905 177.055L57.2279 182.315C56.5057 182.877 55.4943 182.877 54.7721 182.315L48.0156 177.06C47.5003 176.659 47.5 175.88 48.0149 175.479C48.3766 175.197 48.8835 175.197 49.2455 175.479L54.7824 179.785Z" fill="#61804E"/>
<path d="M54.7824 184.055C55.5045 184.617 56.5156 184.617 57.2378 184.055L62.7694 179.755C63.1285 179.475 63.6314 179.476 63.9905 179.755C64.5025 180.153 64.5025 180.927 63.9905 181.325L57.2279 186.585C56.5057 187.147 55.4943 187.147 54.7721 186.585L48.0156 181.33C47.5003 180.929 47.5 180.15 48.0149 179.749C48.3766 179.467 48.8835 179.467 49.2455 179.749L54.7824 184.055Z" fill="#61804E"/>
<path d="M57.2284 178.045C56.5059 178.607 55.4943 178.606 54.7722 178.044L48.64 173.27C47.8089 172.626 47.8076 171.372 48.6373 170.727L54.7721 165.955C55.4943 165.393 56.5057 165.393 57.2279 165.955L63.3689 170.731C64.1965 171.375 64.197 172.626 63.37 173.27L57.2284 178.045Z" fill="#61804E"/>
<circle opacity="0.1" cx="110" cy="112" r="75" fill="#8DBD7A"/>
<circle opacity="0.05" cx="146" cy="146" r="146" fill="#8DBD7A"/>
<circle opacity="0.2" cx="255" cy="255" r="50" fill="#8DBD7A"/>
<g opacity="0.5">
<path d="M160.111 60.7173C158.439 64.0328 154.127 65.1776 154.127 65.1776C154.127 65.1776 152.528 60.9471 154.199 57.6317C155.871 54.3162 158.545 52.3174 160.183 53.1715C161.822 54.0256 161.782 57.4019 160.111 60.7173Z" fill="#8ED16F"/>
<path d="M157.436 59.5331C158.083 58.5972 158.429 57.651 158.208 57.4197C157.988 57.1884 157.284 57.7596 156.637 58.6956C155.99 59.6315 155.644 60.5778 155.865 60.809C156.086 61.0403 156.789 60.4691 157.436 59.5331Z" fill="black" fill-opacity="0.3"/>
<path d="M154.477 75.8962C150.88 76.2959 147.654 73.2099 147.654 73.2099C147.654 73.2099 150.26 69.4784 153.859 69.0821C157.458 68.6858 160.506 69.8984 160.682 71.7684C160.857 73.6384 158.074 75.4966 154.477 75.8962Z" fill="#8ED16F"/>
<path d="M154.394 72.8381C155.475 72.6115 156.248 72.1294 156.119 71.7612C155.99 71.393 155.009 71.2783 153.927 71.5049C152.846 71.7315 152.074 72.2137 152.203 72.5818C152.331 72.95 153.312 73.0648 154.394 72.8381Z" fill="black" fill-opacity="0.3"/>
<path d="M150.595 88.1447C146.998 88.5443 143.772 85.4584 143.772 85.4584C143.772 85.4584 146.378 81.7268 149.977 81.3305C153.576 80.9342 156.624 82.1468 156.8 84.0168C156.976 85.8868 154.192 87.7477 150.595 88.1447Z" fill="#8ED16F"/>
<path d="M150.506 85.2816C151.587 85.0557 152.359 84.5743 152.23 84.2066C152.101 83.8388 151.12 83.7239 150.038 83.9499C148.957 84.1759 148.185 84.6572 148.314 85.025C148.443 85.3927 149.424 85.5076 150.506 85.2816Z" fill="black" fill-opacity="0.3"/>
<path d="M138.735 75.7135C140.515 78.9178 144.859 79.7907 144.859 79.7907C144.859 79.7907 146.319 75.4611 144.539 72.2569C142.76 69.0526 140.018 67.2298 138.416 68.1797C136.813 69.1295 136.956 72.5092 138.735 75.7135Z" fill="#8ED16F"/>
<path d="M142.761 75.7421C143.131 75.5212 142.979 74.5269 142.42 73.5214C141.862 72.5159 141.109 71.8798 140.739 72.1007C140.368 72.3216 140.521 73.3158 141.079 74.3214C141.638 75.3269 142.391 75.963 142.761 75.7421Z" fill="black" fill-opacity="0.3"/>
<path d="M134.582 87.23C137.309 89.6257 141.708 88.9463 141.708 88.9463C141.708 88.9463 141.685 84.3869 138.96 81.9918C136.235 79.5967 133.047 78.8152 131.834 80.2754C130.622 81.7356 131.855 84.8342 134.582 87.23Z" fill="#8ED16F"/>
<path d="M138.34 85.9203C138.634 85.6265 138.205 84.7562 137.382 83.9765C136.559 83.1967 135.652 82.8028 135.358 83.0965C135.064 83.3903 135.492 84.2606 136.316 85.0404C137.139 85.8201 138.045 86.2141 138.34 85.9203Z" fill="black" fill-opacity="0.3"/>
</g>
<path d="M52.1689 118.883V97.749C52.1689 96.6852 52.4535 95.8688 53.0225 95.2998C53.6038 94.7308 54.346 94.4463 55.249 94.4463C56.1891 94.4463 56.9375 94.7246 57.4941 95.2812C58.0508 95.8379 58.3291 96.6605 58.3291 97.749V116.229H64.9531C65.9427 116.229 66.7035 116.483 67.2354 116.99C67.7673 117.497 68.0332 118.202 68.0332 119.105C68.0332 119.996 67.7549 120.701 67.1982 121.221C66.654 121.74 65.9056 122 64.9531 122H55.249C54.4079 122 53.6842 121.722 53.0781 121.165C52.472 120.608 52.1689 119.848 52.1689 118.883ZM69.1279 108.325C69.1279 104.021 70.334 100.569 72.7461 97.9717C75.1706 95.374 78.3991 94.0752 82.4316 94.0752C86.4395 94.0752 89.6556 95.3678 92.0801 97.9531C94.5169 100.538 95.7354 103.996 95.7354 108.325C95.7354 112.655 94.5231 116.118 92.0986 118.716C89.6742 121.313 86.4518 122.612 82.4316 122.612C78.3991 122.612 75.1706 121.313 72.7461 118.716C70.334 116.118 69.1279 112.655 69.1279 108.325ZM75.7334 108.325C75.7334 110.737 76.2529 112.71 77.292 114.244C78.4795 115.988 80.1927 116.867 82.4316 116.879C84.6582 116.879 86.3652 116.001 87.5527 114.244C88.5918 112.698 89.1113 110.725 89.1113 108.325C89.1113 105.938 88.5918 103.971 87.5527 102.425C86.3652 100.681 84.6582 99.8086 82.4316 99.8086C80.2051 99.8086 78.4919 100.681 77.292 102.425C76.2529 103.946 75.7334 105.913 75.7334 108.325ZM97.2568 108.325C97.2568 104.194 98.5124 100.786 101.023 98.1016C103.535 95.4173 106.714 94.0752 110.561 94.0752C113.319 94.0752 115.7 94.5824 117.704 95.5967C119.931 96.7347 121.044 98.2129 121.044 100.031C121.044 100.848 120.797 101.491 120.302 101.961C119.807 102.431 119.133 102.666 118.279 102.666C117.698 102.666 116.69 102.19 115.255 101.237C113.82 100.285 112.342 99.8086 110.82 99.8086C108.717 99.8086 107.029 100.613 105.755 102.221C104.493 103.829 103.862 105.864 103.862 108.325C103.862 110.675 104.394 112.624 105.458 114.17C106.695 115.964 108.445 116.867 110.709 116.879C112.329 116.879 113.659 116.396 114.698 115.432C115.737 114.467 116.331 113.174 116.479 111.554H112.954C111.965 111.554 111.204 111.3 110.672 110.793C110.14 110.286 109.874 109.587 109.874 108.696C109.874 106.779 110.888 105.82 112.917 105.82C112.929 105.82 112.942 105.82 112.954 105.82H119.597C121.774 105.82 122.862 107.082 122.862 109.605C122.862 113.354 121.761 116.434 119.56 118.846C117.284 121.357 114.284 122.612 110.561 122.612C106.429 122.612 103.145 121.215 100.708 118.419C98.4072 115.784 97.2568 112.42 97.2568 108.325ZM135.127 118.92V97.749C135.127 96.6852 135.411 95.8688 135.98 95.2998C136.549 94.7308 137.292 94.4463 138.207 94.4463C139.147 94.4463 139.896 94.7246 140.452 95.2812C141.009 95.8379 141.287 96.6605 141.287 97.749V118.92C141.287 119.984 140.996 120.8 140.415 121.369C139.846 121.938 139.11 122.223 138.207 122.223C137.267 122.223 136.519 121.944 135.962 121.388C135.405 120.831 135.127 120.008 135.127 118.92ZM144.107 118.92V97.749C144.107 96.6852 144.392 95.8688 144.961 95.2998C145.53 94.7308 146.272 94.4463 147.188 94.4463C148.103 94.4463 148.913 94.8174 149.618 95.5596C149.866 95.807 150.472 96.5492 151.437 97.7861L161.66 110.719L161.734 97.749C161.734 96.6852 162.019 95.8688 162.588 95.2998C163.157 94.7308 163.899 94.4463 164.814 94.4463C165.755 94.4463 166.503 94.7246 167.06 95.2812C167.616 95.8379 167.895 96.6605 167.895 97.749V118.92C167.895 119.984 167.61 120.8 167.041 121.369C166.472 121.938 165.73 122.223 164.814 122.223C163.924 122.223 163.114 121.845 162.384 121.091C162.099 120.782 161.493 120.046 160.565 118.883L150.342 105.969L150.268 118.92C150.268 119.984 149.977 120.8 149.396 121.369C148.826 121.938 148.09 122.223 147.188 122.223C146.247 122.223 145.499 121.944 144.942 121.388C144.386 120.831 144.107 120.008 144.107 118.92Z" fill="#60944C"/>
<path d="M166.589 149.825L161.424 151.67C160.911 151.853 160.345 151.592 160.152 151.083L155.321 138.345C155.139 137.865 155.347 137.317 155.832 137.149C156.02 137.085 156.206 137.032 156.361 137.011C156.453 136.998 156.545 137.013 156.631 137.048C156.871 137.144 157.408 137.408 158 138C159 139 161 138.5 161.5 138.5C161.74 138.5 162.23 138.022 162.693 137.602C163.106 137.228 163.639 137.433 163.809 137.964L167.205 148.579C167.37 149.092 167.097 149.644 166.589 149.825Z" fill="#8ED16F"/>
<path d="M163.327 148.257C164.171 147.961 164.368 146.338 163.767 144.632C163.166 142.926 161.995 141.783 161.152 142.079C160.308 142.376 160.111 143.999 160.711 145.705C161.312 147.411 162.483 148.554 163.327 148.257Z" fill="black" fill-opacity="0.1"/>
<path d="M58.472 127.832V129.192H54.616V139H53.16V129.192H49.304V127.832H58.472ZM62.8293 129.272C63.8426 128.205 65.1919 127.672 66.8773 127.672C68.5626 127.672 69.9119 128.205 70.9253 129.272C71.9386 130.339 72.4613 131.72 72.4933 133.416C72.4613 135.112 71.9386 136.493 70.9253 137.56C69.9119 138.627 68.5626 139.16 66.8773 139.16C65.1919 139.16 63.8426 138.627 62.8293 137.56C61.8159 136.493 61.2933 135.112 61.2613 133.416C61.2933 131.72 61.8159 130.339 62.8293 129.272ZM62.7173 133.416C62.7173 134.685 63.0853 135.736 63.8213 136.568C64.5679 137.389 65.5813 137.8 66.8613 137.8C68.1519 137.8 69.1706 137.389 69.9173 136.568C70.6639 135.736 71.0373 134.685 71.0373 133.416C71.0373 132.147 70.6639 131.101 69.9173 130.28C69.1706 129.448 68.1519 129.032 66.8613 129.032C65.5813 129.032 64.5679 129.448 63.8213 130.28C63.0853 131.101 62.7173 132.147 62.7173 133.416ZM90.9142 130.152C89.8156 129.427 88.6049 129.064 87.2822 129.064C85.9596 129.064 84.9249 129.469 84.1782 130.28C83.4316 131.091 83.0582 132.136 83.0582 133.416C83.0582 134.696 83.4316 135.741 84.1782 136.552C84.9249 137.363 85.9596 137.768 87.2822 137.768C88.6049 137.768 89.8156 137.405 90.9142 136.68H90.9942V138.12C89.8422 138.813 88.5782 139.16 87.2022 139.16C85.5702 139.16 84.2262 138.643 83.1702 137.608C82.1249 136.563 81.6022 135.165 81.6022 133.416C81.6022 131.667 82.1249 130.275 83.1702 129.24C84.2262 128.195 85.5702 127.672 87.2022 127.672C88.5782 127.672 89.8422 128.019 90.9942 128.712V130.152H90.9142ZM95.9261 129.272C96.9395 128.205 98.2888 127.672 99.9741 127.672C101.659 127.672 103.009 128.205 104.022 129.272C105.035 130.339 105.558 131.72 105.59 133.416C105.558 135.112 105.035 136.493 104.022 137.56C103.009 138.627 101.659 139.16 99.9741 139.16C98.2888 139.16 96.9395 138.627 95.9261 137.56C94.9128 136.493 94.3901 135.112 94.3581 133.416C94.3901 131.72 94.9128 130.339 95.9261 129.272ZM95.8141 133.416C95.8141 134.685 96.1821 135.736 96.9181 136.568C97.6648 137.389 98.6781 137.8 99.9581 137.8C101.249 137.8 102.267 137.389 103.014 136.568C103.761 135.736 104.134 134.685 104.134 133.416C104.134 132.147 103.761 131.101 103.014 130.28C102.267 129.448 101.249 129.032 99.9581 129.032C98.6781 129.032 97.6648 129.448 96.9181 130.28C96.1821 131.101 95.8141 132.147 95.8141 133.416ZM117.887 127.832H119.343V139H117.551L111.087 129.8H111.055V139H109.599V127.832H111.391L117.839 137.016H117.887V127.832ZM131.963 127.832V129.192H128.107V139H126.651V129.192H122.795V127.832H131.963ZM136.88 127.832V139H135.424V127.832H136.88ZM149.874 127.832H151.33V139H149.538L143.074 129.8H143.042V139H141.586V127.832H143.378L149.826 137.016H149.874V127.832ZM163.678 127.832H165.134V134.808C165.134 135.533 164.995 136.184 164.718 136.76C164.451 137.325 164.089 137.779 163.63 138.12C163.182 138.461 162.691 138.723 162.158 138.904C161.635 139.075 161.097 139.16 160.542 139.16C159.987 139.16 159.443 139.075 158.91 138.904C158.387 138.723 157.897 138.461 157.438 138.12C156.99 137.779 156.627 137.325 156.35 136.76C156.083 136.184 155.95 135.533 155.95 134.808V127.832H157.406V134.856C157.406 135.795 157.715 136.525 158.334 137.048C158.953 137.571 159.689 137.832 160.542 137.832C161.395 137.832 162.131 137.571 162.75 137.048C163.369 136.525 163.678 135.795 163.678 134.856V127.832ZM177.499 129.192H171.211V132.728H176.923V134.088H171.211V137.64H177.499V139H169.755V127.832H177.499V129.192Z" fill="#4F5C49"/>
</svg>
