<svg width="22" height="18" viewBox="0 0 22 18" fill="none" xmlns="http://www.w3.org/2000/svg">
<path fill-rule="evenodd" clip-rule="evenodd" d="M6 1C6 0.447715 6.44772 0 7 0H19C19.5043 0 19.9297 0.375536 19.9923 0.875965L21.9923 16.876C22.0279 17.1606 21.9395 17.4468 21.7497 17.6618C21.5599 17.8768 21.2868 18 21 18H1C0.447715 18 0 17.5523 0 17C0 12.0294 4.02942 8 9 8H18.8672L18.1172 2H7C6.44772 2 6 1.55228 6 1ZM19.1172 10H9C5.47351 10 2.55611 12.6077 2.07089 16H19.8672L19.1172 10ZM6.5 13C6.5 12.4477 6.94772 12 7.5 12H8.5C9.05229 12 9.5 12.4477 9.5 13C9.5 13.5523 9.05229 14 8.5 14H7.5C6.94772 14 6.5 13.5523 6.5 13Z" fill="#60944C"/>
</svg>
