<svg width="155" height="55" viewBox="0 0 155 55" fill="none" xmlns="http://www.w3.org/2000/svg">
<path d="M8.2126 15.881C13.0284 19.3523 19.9905 17.7968 19.9905 17.7968C19.9905 17.7968 19.1402 10.6161 14.3244 7.14478C9.50865 3.67351 4.24168 2.80902 2.54647 5.22896C0.851261 7.64891 3.39685 12.4097 8.2126 15.881Z" fill="#8ED16F"/>
<path d="M11.1344 12.2288C9.52622 11.3781 8.33802 10.2906 8.48042 9.79986C8.62283 9.30911 10.0419 9.60091 11.6501 10.4516C13.2582 11.3023 14.4464 12.3898 14.304 12.8806C14.1616 13.3713 12.7425 13.0795 11.1344 12.2288Z" fill="black" fill-opacity="0.3"/>
<path d="M27.3972 33.2612C32.7949 31.1761 35.0962 24.4198 35.0962 24.4198C35.0962 24.4198 28.6478 21.0472 23.2498 23.1384C17.8518 25.2296 14.4215 29.1972 15.5508 31.9798C16.6801 34.7624 21.9995 35.3463 27.3972 33.2612Z" fill="#8ED16F"/>
<path d="M25.2598 28.8618C23.5585 29.3376 22.1074 29.2229 22.0186 28.6057C21.9299 27.9884 23.2371 27.1023 24.9385 26.6264C26.6398 26.1506 28.0909 26.2653 28.1797 26.8825C28.2684 27.4998 26.9612 28.3859 25.2598 28.8618Z" fill="black" fill-opacity="0.3"/>
<path d="M41.9344 47.7765C47.3322 45.6914 49.6334 38.935 49.6334 38.935C49.6334 38.935 43.185 35.5625 37.787 37.6536C32.389 39.7448 28.9587 43.7125 30.088 46.4951C31.2173 49.2777 36.5396 49.8648 41.9344 47.7765Z" fill="#8ED16F"/>
<path d="M39.9504 43.6487C38.2494 44.1255 36.7993 44.0118 36.7114 43.3949C36.6235 42.7779 37.9311 41.8913 39.632 41.4146C41.3329 40.9378 42.7831 41.0515 42.871 41.6684C42.9589 42.2854 41.6513 43.172 39.9504 43.6487Z" fill="black" fill-opacity="0.3"/>
<path d="M49.5948 21.3961C49.4329 27.2539 43.913 31.6954 43.913 31.6954C43.913 31.6954 38.6503 26.6291 38.8122 20.7714C38.974 14.9136 41.5199 10.3061 44.4939 10.4721C47.4678 10.638 49.7566 15.5383 49.5948 21.3961Z" fill="#8ED16F"/>
<path d="M43.9046 24.4047C43.2165 24.3643 42.6999 22.8413 42.7508 21.003C42.8017 19.1647 43.4008 17.7072 44.0889 17.7476C44.7771 17.7881 45.2937 19.3111 45.2428 21.1494C45.1919 22.9877 44.5927 24.4451 43.9046 24.4047Z" fill="black" fill-opacity="0.3"/>
<path d="M63.9784 34.6722C61.8757 40.0818 55.1342 42.3611 55.1342 42.3611C55.1342 42.3611 51.8054 35.8755 53.9049 30.4687C56.0044 25.062 59.9524 21.6021 62.7491 22.7799C65.5458 23.9576 66.0811 29.2626 63.9784 34.6722Z" fill="#8ED16F"/>
<path d="M57.6813 35.585C57.047 35.3852 57.0136 33.8344 57.6069 32.1211C58.2001 30.4078 59.1952 29.1808 59.8295 29.3805C60.4638 29.5802 60.4971 31.131 59.9039 32.8443C59.3107 34.5577 58.3156 35.7847 57.6813 35.585Z" fill="black" fill-opacity="0.3"/>
<path d="M74.574 44.9528C69.9964 48.5208 63.0393 47.0238 63.0393 47.0238C63.0393 47.0238 63.504 39.7486 68.0774 36.1814C72.6508 32.6142 77.8139 31.666 79.6121 34.1104C81.4102 36.5548 79.1516 41.3848 74.574 44.9528Z" fill="#8ED16F"/>
<path d="M68.6987 42.51C68.2563 42.0135 69.0224 40.6646 70.4097 39.4973C71.7971 38.33 73.2803 37.7862 73.7227 38.2827C74.1651 38.7792 73.399 40.1281 72.0117 41.2954C70.6243 42.4627 69.1411 43.0065 68.6987 42.51Z" fill="black" fill-opacity="0.3"/>
<path d="M142.834 34.2088C136.948 34.9806 131.557 30.309 131.557 30.309C131.557 30.309 135.711 24.3907 141.598 23.6189C147.484 22.8471 152.53 24.5842 152.875 27.5186C153.22 30.4531 148.721 33.4369 142.834 34.2088Z" fill="#8ED16F"/>
<path d="M141.995 29.6077C143.814 29.6215 145.376 29.2278 145.483 28.7282C145.59 28.2286 144.203 27.8124 142.383 27.7986C140.564 27.7848 139.002 28.1786 138.895 28.6781C138.788 29.1777 140.175 29.5939 141.995 29.6077Z" fill="black" fill-opacity="0.3"/>
<path d="M117.702 40.4102C113.939 36.0144 115.117 28.9749 115.117 28.9749C115.117 28.9749 122.394 29.0644 126.154 33.4657C129.914 37.867 131.052 42.9869 128.738 44.901C126.424 46.815 121.465 44.806 117.702 40.4102Z" fill="#8ED16F"/>
<path d="M121.67 37.5509C122.942 38.7768 124.274 39.3641 124.645 38.8628C125.016 38.3615 124.285 36.9613 123.013 35.7355C121.741 34.5096 120.409 33.9223 120.038 34.4236C119.667 34.9249 120.398 36.3251 121.67 37.5509Z" fill="black" fill-opacity="0.3"/>
<path d="M98.0189 46.2938C94.2559 41.898 95.4346 34.8585 95.4346 34.8585C95.4346 34.8585 102.711 34.9479 106.471 39.3492C110.232 43.7505 111.37 48.8705 109.056 50.7846C106.742 52.6986 101.778 50.6911 98.0189 46.2938Z" fill="#8ED16F"/>
<path d="M101.723 43.6009C102.995 44.8274 104.325 45.4152 104.695 44.9137C105.065 44.4123 104.335 43.0116 103.063 41.7851C101.792 40.5586 100.461 39.9708 100.091 40.4723C99.7214 40.9737 100.452 42.3745 101.723 43.6009Z" fill="black" fill-opacity="0.3"/>
<path d="M103.787 19.4362C101.152 24.67 103.904 31.1982 103.904 31.1982C103.904 31.1982 110.94 29.2342 113.576 24.0005C116.212 18.7668 116.156 13.503 113.459 12.2385C110.763 10.9741 106.423 14.2025 103.787 19.4362Z" fill="#8ED16F"/>
<path d="M107.37 24.7838C107.995 25.0746 109.172 23.9788 109.999 22.3363C110.826 20.6938 110.99 19.1265 110.365 18.8357C109.74 18.5449 108.563 19.6407 107.736 21.2832C106.909 22.9257 106.745 24.493 107.37 24.7838Z" fill="black" fill-opacity="0.3"/>
<path d="M82.2852 30.5404C81.5706 36.3001 86.4244 41.5042 86.4244 41.5042C86.4244 41.5042 92.4311 37.3734 93.1472 31.6177C93.8634 25.862 92.0288 20.9436 89.0081 20.6539C85.9874 20.3642 82.9999 24.7807 82.2852 30.5404Z" fill="#8ED16F"/>
<path d="M87.396 34.3307C88.0491 34.4557 88.814 33.1062 89.1044 31.3165C89.3948 29.5268 89.1007 27.9746 88.4476 27.8496C87.7944 27.7246 87.0295 29.074 86.7392 30.8638C86.4488 32.6535 86.7428 34.2057 87.396 34.3307Z" fill="black" fill-opacity="0.3"/>
</svg>
