<svg width="181" height="15" viewBox="0 0 181 15" fill="none" xmlns="http://www.w3.org/2000/svg">
<path d="M0.0703125 7.52246C0.0703125 5.54199 0.650391 3.92188 1.81055 2.66211C2.97656 1.40234 4.51465 0.772461 6.4248 0.772461C7.47949 0.772461 8.34375 0.916016 9.01758 1.20312C9.86719 1.56055 10.292 2.09961 10.292 2.82031C10.292 3.18945 10.1748 3.51758 9.94043 3.80469C9.71191 4.08594 9.41016 4.22656 9.03516 4.22656C8.91797 4.22656 8.44922 4.08887 7.62891 3.81348C7.19531 3.66699 6.81738 3.59375 6.49512 3.59375C5.39355 3.59375 4.55566 3.99512 3.98145 4.79785C3.46582 5.51855 3.20801 6.42676 3.20801 7.52246C3.20801 8.6123 3.47461 9.52344 4.00781 10.2559C4.54102 10.9883 5.28809 11.3545 6.24902 11.3545C6.84668 11.3545 7.35645 11.29 7.77832 11.1611C8.20605 11.0264 8.64844 10.8857 9.10547 10.7393C9.60938 10.7393 9.96973 10.9209 10.1865 11.2842C10.333 11.5244 10.4062 11.7998 10.4062 12.1104C10.4062 12.8428 9.9375 13.4053 9 13.7979C8.23242 14.1201 7.35645 14.2842 6.37207 14.29C4.41504 14.29 2.8623 13.6279 1.71387 12.3037C0.624023 11.0557 0.0761719 9.46191 0.0703125 7.52246ZM13.8445 12.541V2.5127C13.8445 2.00879 13.9793 1.62207 14.2488 1.35254C14.5184 1.08301 14.8699 0.948242 15.3035 0.948242C15.7488 0.948242 16.1033 1.08008 16.367 1.34375C16.6307 1.60742 16.7625 1.99707 16.7625 2.5127V12.541C16.7625 13.0449 16.6248 13.4316 16.3494 13.7012C16.0799 13.9707 15.7312 14.1055 15.3035 14.1055C14.8582 14.1055 14.5037 13.9736 14.24 13.71C13.9764 13.4463 13.8445 13.0566 13.8445 12.541ZM20.5611 12.541V2.53027C20.5611 2.06152 20.7018 1.69824 20.983 1.44043C21.2643 1.18262 21.61 1.05371 22.0201 1.05371H25.527C26.8219 1.05371 27.859 1.41992 28.6383 2.15234C29.4234 2.88477 29.816 3.85742 29.816 5.07031C29.816 6.03125 29.5523 6.83398 29.025 7.47852C28.4977 8.11719 27.7652 8.52734 26.8277 8.70898L29.3678 11.4775C29.5729 11.6943 29.7252 11.9023 29.8248 12.1016C29.9244 12.3008 29.9742 12.5146 29.9742 12.7432C29.9742 13.042 29.8658 13.3232 29.649 13.5869C29.3619 13.9326 28.9723 14.1055 28.4801 14.1055C28.1227 14.1055 27.859 14.0557 27.6891 13.9561C27.5191 13.8506 27.3229 13.6602 27.1002 13.3848L23.5143 8.81445L23.4791 12.541C23.4791 13.0449 23.3443 13.4316 23.0748 13.7012C22.8053 13.9707 22.4537 14.1055 22.0201 14.1055C21.5748 14.1055 21.2203 13.9736 20.9566 13.71C20.693 13.4463 20.5611 13.0566 20.5611 12.541ZM23.4791 6.63477H25.4039C25.8727 6.63477 26.2389 6.49707 26.5025 6.22168C26.7662 5.94629 26.898 5.59766 26.898 5.17578C26.898 4.75391 26.7574 4.41699 26.4762 4.16504C26.1949 3.90723 25.8375 3.77832 25.4039 3.77832H23.4791V6.63477ZM33.184 7.52246C33.184 5.54199 33.7641 3.92188 34.9242 2.66211C36.0902 1.40234 37.6283 0.772461 39.5385 0.772461C40.5932 0.772461 41.4574 0.916016 42.1312 1.20312C42.9809 1.56055 43.4057 2.09961 43.4057 2.82031C43.4057 3.18945 43.2885 3.51758 43.0541 3.80469C42.8256 4.08594 42.5238 4.22656 42.1488 4.22656C42.0316 4.22656 41.5629 4.08887 40.7426 3.81348C40.309 3.66699 39.9311 3.59375 39.6088 3.59375C38.5072 3.59375 37.6693 3.99512 37.0951 4.79785C36.5795 5.51855 36.3217 6.42676 36.3217 7.52246C36.3217 8.6123 36.5883 9.52344 37.1215 10.2559C37.6547 10.9883 38.4018 11.3545 39.3627 11.3545C39.9604 11.3545 40.4701 11.29 40.892 11.1611C41.3197 11.0264 41.7621 10.8857 42.2191 10.7393C42.723 10.7393 43.0834 10.9209 43.3002 11.2842C43.4467 11.5244 43.5199 11.7998 43.5199 12.1104C43.5199 12.8428 43.0512 13.4053 42.1137 13.7979C41.3461 14.1201 40.4701 14.2842 39.4857 14.29C37.5287 14.29 35.976 13.6279 34.8275 12.3037C33.7377 11.0557 33.1898 9.46191 33.184 7.52246ZM46.8439 12.5234V2.5127C46.8439 2.00879 46.9787 1.62207 47.2482 1.35254C47.5236 1.08301 47.8752 0.948242 48.3029 0.948242C48.7482 0.948242 49.1027 1.08008 49.3664 1.34375C49.6301 1.60742 49.7619 1.99707 49.7619 2.5127V11.2666H52.8996C53.3684 11.2666 53.7287 11.3867 53.9807 11.627C54.2326 11.8672 54.3586 12.2012 54.3586 12.6289C54.3586 13.0508 54.2268 13.3848 53.9631 13.6309C53.7053 13.877 53.3508 14 52.8996 14H48.3029C47.9045 14 47.5617 13.8682 47.2746 13.6045C46.9875 13.3408 46.8439 12.9805 46.8439 12.5234ZM57.5771 12.5234V2.53027C57.5771 2.06152 57.7178 1.69824 57.999 1.44043C58.2803 1.18262 58.626 1.05371 59.0361 1.05371H63.501C63.9697 1.05371 64.3301 1.17383 64.582 1.41406C64.834 1.6543 64.96 1.99121 64.96 2.4248C64.96 2.84668 64.834 3.17773 64.582 3.41797C64.3301 3.6582 63.9697 3.77832 63.501 3.77832H60.4951V6.13379H63.2461C63.7031 6.13379 64.0605 6.25391 64.3184 6.49414C64.5762 6.73438 64.7051 7.06543 64.7051 7.4873C64.7051 8.39551 64.2246 8.84961 63.2637 8.84961C63.2578 8.84961 63.252 8.84961 63.2461 8.84961H60.4951V11.2666H63.6064C64.0752 11.2666 64.4355 11.3867 64.6875 11.627C64.9395 11.8672 65.0654 12.2012 65.0654 12.6289C65.0654 13.0508 64.9365 13.3848 64.6787 13.6309C64.4209 13.877 64.0635 14 63.6064 14H59.0361C58.6377 14 58.2949 13.8682 58.0078 13.6045C57.7207 13.3408 57.5771 12.9805 57.5771 12.5234ZM75.9146 7.52246C75.9146 5.4834 76.4859 3.84863 77.6285 2.61816C78.777 1.3877 80.3063 0.772461 82.2164 0.772461C84.1148 0.772461 85.6383 1.38477 86.7867 2.60938C87.941 3.83398 88.5182 5.47168 88.5182 7.52246C88.5182 9.57324 87.9439 11.2139 86.7955 12.4443C85.6471 13.6748 84.1207 14.29 82.2164 14.29C80.3063 14.29 78.777 13.6748 77.6285 12.4443C76.4859 11.2139 75.9146 9.57324 75.9146 7.52246ZM79.0436 7.52246C79.0436 8.66504 79.2896 9.59961 79.7818 10.3262C80.3443 11.1523 81.1559 11.5684 82.2164 11.5742C83.2711 11.5742 84.0797 11.1582 84.6422 10.3262C85.1344 9.59375 85.3805 8.65918 85.3805 7.52246C85.3805 6.3916 85.1344 5.45996 84.6422 4.72754C84.0797 3.90137 83.2711 3.48828 82.2164 3.48828C81.1617 3.48828 80.3502 3.90137 79.7818 4.72754C79.2896 5.44824 79.0436 6.37988 79.0436 7.52246ZM92.2641 12.541V2.53027C92.2641 2.06152 92.4047 1.69824 92.6859 1.44043C92.9672 1.18262 93.3129 1.05371 93.723 1.05371H98.1879C98.6566 1.05371 99.017 1.17383 99.2689 1.41406C99.5209 1.6543 99.6469 1.99121 99.6469 2.4248C99.6469 2.84668 99.5209 3.17773 99.2689 3.41797C99.017 3.6582 98.6566 3.77832 98.1879 3.77832H95.182V6.09863H97.81C98.267 6.09863 98.6244 6.21875 98.8822 6.45898C99.14 6.69922 99.2689 7.03027 99.2689 7.45215C99.2689 8.36035 98.7885 8.81445 97.8275 8.81445C97.8217 8.81445 97.8158 8.81445 97.81 8.81445H95.182V12.541C95.182 13.0449 95.0443 13.4316 94.7689 13.7012C94.4994 13.9707 94.1508 14.1055 93.723 14.1055C93.2777 14.1055 92.9232 13.9736 92.6596 13.71C92.3959 13.4463 92.2641 13.0566 92.2641 12.541ZM110.329 12.708C110.329 12.4678 110.353 12.1777 110.399 11.8379C110.399 11.8145 110.537 11.0176 110.812 9.44727L111.964 2.80273C112.081 2.09375 112.339 1.58984 112.737 1.29102C113.036 1.0625 113.42 0.948242 113.889 0.948242C114.574 0.948242 115.087 1.18262 115.427 1.65137C115.679 1.99707 116.007 2.82617 116.411 4.13867L117.835 8.58594L119.294 4.13867C119.628 3.0957 119.874 2.41602 120.032 2.09961C120.419 1.33203 121.014 0.948242 121.816 0.948242C122.273 0.948242 122.651 1.0625 122.95 1.29102C123.36 1.60156 123.624 2.10547 123.741 2.80273L124.893 9.44727C125.086 10.5488 125.215 11.3252 125.279 11.7764C125.344 12.2275 125.376 12.5381 125.376 12.708C125.376 13.0654 125.25 13.3877 124.998 13.6748C124.746 13.9619 124.415 14.1055 124.005 14.1055C123.419 14.1055 122.994 13.9092 122.73 13.5166C122.561 13.2529 122.423 12.8018 122.317 12.1631L121.456 6.42383L119.452 12.7783C119.306 13.2588 119.112 13.6016 118.872 13.8066C118.638 14.0059 118.298 14.1055 117.853 14.1055C117.419 14.1055 117.082 14.0059 116.842 13.8066C116.602 13.6016 116.405 13.2588 116.253 12.7783L114.293 6.42383L113.388 12.1631C113.271 12.9658 113.074 13.4902 112.799 13.7363C112.529 13.9824 112.163 14.1055 111.7 14.1055C111.29 14.1055 110.959 13.9619 110.707 13.6748C110.455 13.3877 110.329 13.0654 110.329 12.708ZM128.814 7.52246C128.814 5.4834 129.386 3.84863 130.528 2.61816C131.677 1.3877 133.206 0.772461 135.116 0.772461C137.014 0.772461 138.538 1.38477 139.686 2.60938C140.841 3.83398 141.418 5.47168 141.418 7.52246C141.418 9.57324 140.844 11.2139 139.695 12.4443C138.547 13.6748 137.02 14.29 135.116 14.29C133.206 14.29 131.677 13.6748 130.528 12.4443C129.386 11.2139 128.814 9.57324 128.814 7.52246ZM131.943 7.52246C131.943 8.66504 132.189 9.59961 132.681 10.3262C133.244 11.1523 134.055 11.5684 135.116 11.5742C136.171 11.5742 136.979 11.1582 137.542 10.3262C138.034 9.59375 138.28 8.65918 138.28 7.52246C138.28 6.3916 138.034 5.45996 137.542 4.72754C136.979 3.90137 136.171 3.48828 135.116 3.48828C134.061 3.48828 133.25 3.90137 132.681 4.72754C132.189 5.44824 131.943 6.37988 131.943 7.52246ZM145.129 12.541V2.5127C145.129 2.00879 145.263 1.62207 145.533 1.35254C145.802 1.08301 146.154 0.948242 146.587 0.948242C147.021 0.948242 147.405 1.12402 147.739 1.47559C147.856 1.59277 148.143 1.94434 148.6 2.53027L153.443 8.65625L153.478 2.5127C153.478 2.00879 153.613 1.62207 153.882 1.35254C154.152 1.08301 154.504 0.948242 154.937 0.948242C155.382 0.948242 155.737 1.08008 156.001 1.34375C156.264 1.60742 156.396 1.99707 156.396 2.5127V12.541C156.396 13.0449 156.261 13.4316 155.992 13.7012C155.722 13.9707 155.371 14.1055 154.937 14.1055C154.515 14.1055 154.131 13.9268 153.786 13.5693C153.651 13.4229 153.364 13.0742 152.924 12.5234L148.082 6.40625L148.046 12.541C148.046 13.0449 147.909 13.4316 147.633 13.7012C147.364 13.9707 147.015 14.1055 146.587 14.1055C146.142 14.1055 145.788 13.9736 145.524 13.71C145.26 13.4463 145.129 13.0566 145.129 12.541ZM160.124 12.5234V2.53027C160.124 2.06152 160.265 1.69824 160.546 1.44043C160.828 1.18262 161.173 1.05371 161.583 1.05371H166.048C166.517 1.05371 166.877 1.17383 167.129 1.41406C167.381 1.6543 167.507 1.99121 167.507 2.4248C167.507 2.84668 167.381 3.17773 167.129 3.41797C166.877 3.6582 166.517 3.77832 166.048 3.77832H163.042V6.13379H165.793C166.25 6.13379 166.608 6.25391 166.866 6.49414C167.123 6.73438 167.252 7.06543 167.252 7.4873C167.252 8.39551 166.772 8.84961 165.811 8.84961C165.805 8.84961 165.799 8.84961 165.793 8.84961H163.042V11.2666H166.154C166.622 11.2666 166.983 11.3867 167.235 11.627C167.487 11.8672 167.613 12.2012 167.613 12.6289C167.613 13.0508 167.484 13.3848 167.226 13.6309C166.968 13.877 166.611 14 166.154 14H161.583C161.185 14 160.842 13.8682 160.555 13.6045C160.268 13.3408 160.124 12.9805 160.124 12.5234ZM170.532 2.29297C170.532 1.88867 170.679 1.56348 170.972 1.31738C171.265 1.07129 171.634 0.948242 172.079 0.948242C172.425 0.948242 172.73 1.05664 172.993 1.27344C173.163 1.4082 173.351 1.63086 173.556 1.94141L175.709 5.05273L177.871 1.94141C178.1 1.61914 178.281 1.40234 178.416 1.29102C178.692 1.0625 179.002 0.948242 179.348 0.948242C179.793 0.948242 180.162 1.06836 180.455 1.30859C180.748 1.54883 180.895 1.86816 180.895 2.2666C180.895 2.55371 180.824 2.82324 180.684 3.0752C180.549 3.32715 180.218 3.80762 179.691 4.5166L177.168 7.93555V12.541C177.168 13.0449 177.033 13.4316 176.764 13.7012C176.494 13.9707 176.143 14.1055 175.709 14.1055C175.264 14.1055 174.909 13.9736 174.646 13.71C174.388 13.4463 174.259 13.0566 174.259 12.541V7.93555L171.737 4.5166C171.233 3.83105 170.913 3.36816 170.779 3.12793C170.614 2.84082 170.532 2.5625 170.532 2.29297Z" fill="#60944C"/>
</svg>
