<svg width="16" height="22" viewBox="0 0 16 22" fill="none" xmlns="http://www.w3.org/2000/svg">
<path fill-rule="evenodd" clip-rule="evenodd" d="M12.607 0.205302C12.8547 0.394485 13 0.688336 13 1.00001V3.00001H15C15.5523 3.00001 16 3.44772 16 4.00001V21C16 21.5523 15.5523 22 15 22H1C0.447715 22 0 21.5523 0 21V4.00001C0 3.54906 0.301821 3.1539 0.736883 3.03524L11.7369 0.035245C12.0376 -0.0467614 12.3593 0.0161191 12.607 0.205302ZM11 3.00001V2.30926L8.46725 3.00001H11ZM2 5.00001H14V20H2V5.00001ZM8 10C7.44772 10 7 10.4477 7 11C7 11.5523 7.44772 12 8 12C8.55228 12 9 11.5523 9 11C9 10.4477 8.55228 10 8 10ZM5 11C5 9.34315 6.34315 8.00001 8 8.00001C9.65685 8.00001 11 9.34315 11 11C11 12.6569 9.65685 14 8 14C6.34315 14 5 12.6569 5 11ZM5 16C5 15.4477 5.44772 15 6 15H10C10.5523 15 11 15.4477 11 16C11 16.5523 10.5523 17 10 17H6C5.44772 17 5 16.5523 5 16Z" fill="#60944C"/>
</svg>
