<svg width="65" height="289" viewBox="0 0 65 289" fill="none" xmlns="http://www.w3.org/2000/svg">
<path d="M0 288.501V1.5002C0 1.5002 1.82725 -0.0177887 7 0.000157887C9.3059 0.00815809 11.8792 0.0672595 14.5 0.221432C20.021 0.0134725 25.5 6.00015 28 9.00014C29.8674 11.241 35.4207 21.2994 33 33.5001C29.4573 51.3561 18.2842 73.1281 13.5 87.5002C11.429 93.7217 11.9826 99.7755 12.5 101.5C12.9986 103.162 12.5327 107.612 15.2566 113C27.2823 136.789 58.362 188.124 60 195C62.65 206.125 63.6853 211.797 64 222.5C64.3402 234.07 64.0081 241.159 60.36 252.001C57.5 260.501 54.4499 265.634 48 272C41.5186 278.397 36.3356 280.544 27.875 284.001C17.6673 288.171 0 288.501 0 288.501Z" fill="#60944C"/>
<path d="M16.2929 246.793C15.9024 247.184 15.9024 247.817 16.2929 248.207L22.6569 254.571C23.0474 254.962 23.6805 254.962 24.0711 254.571C24.4616 254.181 24.4616 253.548 24.0711 253.157L18.4142 247.5L24.0711 241.843C24.4616 241.453 24.4616 240.82 24.0711 240.429C23.6805 240.039 23.0474 240.039 22.6569 240.429L16.2929 246.793ZM37 246.5H28.6667V248.5H37V246.5ZM28.6667 246.5H17V248.5H28.6667V246.5Z" fill="#EAF1EC"/>
</svg>
