<svg width="22" height="22" viewBox="0 0 22 22" fill="none" xmlns="http://www.w3.org/2000/svg">
<path d="M13.6536 0.615665C16.4293 -0.684662 19.1507 0.000389099 20.7123 3.38429C21.9357 6.03521 20.4753 8.7431 16.6935 11.4596L16.5755 11.5424L16.5758 20.5197C16.5758 21.2716 15.7848 21.7411 15.1345 21.4174L15.0381 21.3628L10.3735 18.3883L10.1015 18.7709C8.29175 21.2479 6.73215 22.212 5.27932 21.2067L5.15117 21.1127C4.95699 20.949 4.79437 20.6826 4.6592 20.2998L4.58137 20.056C4.54406 19.927 4.50915 19.7873 4.47653 19.6365L4.4143 19.3199C4.39455 19.2094 4.37579 19.0938 4.35797 18.9731L4.30734 18.5954L4.26222 18.1861L4.20441 17.5115L4.17218 17.0203L4.14476 16.4953L4.11222 15.6427L4.0894 14.7101L4.07926 14.0429L4.07115 12.972L4.07147 11.5194L3.43214 11.0294L2.97319 10.6658C1.60508 9.55996 1.02092 8.86334 0.492547 7.83888L0.416103 7.68767C-0.899321 5.03544 0.962495 0.191175 5.17457 0.191175C7.57693 0.191175 9.572 1.26165 11.1252 3.32811L11.2675 3.52235L11.3946 3.21706C11.9213 2.0169 12.6061 1.17464 13.4756 0.705352L13.6536 0.615665ZM18.8963 4.22233C17.8425 1.93884 16.3472 1.56241 14.5021 2.42678C13.7048 2.80031 13.0129 4.04931 12.5532 6.24558C12.3565 7.18517 11.0775 7.33479 10.6693 6.46597C9.30339 3.55899 7.49833 2.19118 5.17457 2.19118C3.77028 2.19118 2.88707 2.88781 2.40983 4.12954C2.02883 5.12087 2.00349 6.387 2.20785 6.79905C2.22718 6.83804 2.24654 6.87636 2.26598 6.91408L2.38446 7.13392L2.50918 7.34328C2.55224 7.41173 2.59699 7.47907 2.64411 7.54592L2.79318 7.74562C2.87192 7.84536 2.95744 7.94542 3.05199 8.04792L3.25375 8.25678C3.28961 8.29235 3.32662 8.32834 3.36489 8.36484L3.61014 8.59053L3.88931 8.83216L4.20638 9.0935C4.2626 9.13891 4.32056 9.1853 4.38035 9.23274L4.96998 9.69041L5.67156 10.2179C5.92712 10.408 6.07687 10.7084 6.07479 11.0269C6.0737 11.1954 6.07284 11.3616 6.07222 11.5256L6.07134 12.4814L6.07616 13.3816L6.08665 14.2262L6.10281 15.015L6.12463 15.748L6.15208 16.4252L6.18517 17.0463L6.22387 17.6115L6.26939 18.1325L6.32032 18.5898L6.37633 18.9827C6.3958 19.1028 6.41607 19.2121 6.43707 19.3102L6.47308 19.4647L6.50547 19.5793L6.54089 19.5753C6.64641 19.5527 6.7968 19.4675 6.98914 19.3094L7.16421 19.1558C7.22594 19.0985 7.29104 19.0349 7.35942 18.965L7.57436 18.7356L7.80863 18.4661C7.8899 18.3694 7.97432 18.2658 8.06182 18.1551L8.33352 17.8011C8.38033 17.7385 8.42789 17.674 8.47619 17.6076L8.7749 17.1864C8.87741 17.0384 8.98283 16.8825 9.0911 16.7187L9.24897 16.4772C9.54757 16.0156 10.1628 15.8816 10.6263 16.1772L14.5755 18.6964L14.5758 11.0204C14.5758 10.7304 14.7014 10.4569 14.9165 10.2684L15.0141 10.193C18.4958 7.82914 19.651 5.85752 18.8963 4.22233ZM12.0745 10.5204C12.5873 10.5204 13.01 10.9064 13.0677 11.4037L13.0745 11.5204V14.5204C13.0745 15.0726 12.6268 15.5204 12.0745 15.5204C11.5616 15.5204 11.139 15.1343 11.0812 14.637L11.0745 14.5204V11.5204C11.0745 10.9681 11.5222 10.5204 12.0745 10.5204Z" fill="#60944C"/>
</svg>
