<svg width="84" height="41" viewBox="0 0 84 41" fill="none" xmlns="http://www.w3.org/2000/svg">
<path d="M11.1569 17.7397C17.3437 20.478 24.7417 17.106 24.7417 17.106C24.7417 17.106 22.1045 9.29837 15.9178 6.56004C9.73104 3.82171 3.65425 4.09646 2.33301 7.19378C1.01176 10.2911 4.9702 15.0014 11.1569 17.7397Z" fill="#8ED16F"/>
<path d="M13.5561 12.9798C11.5627 12.4093 9.9819 11.4761 10.0253 10.8953C10.0687 10.3146 11.7198 10.3062 13.7132 10.8767C15.7066 11.4471 17.2874 12.3803 17.244 12.9611C17.2006 13.5419 15.5495 13.5502 13.5561 12.9798Z" fill="black" fill-opacity="0.3"/>
<path d="M36.6386 32.6091C42.1674 29.0143 43.1446 20.9387 43.1446 20.9387C43.1446 20.9387 35.1604 18.6945 29.6326 22.296C24.1049 25.8976 21.2128 31.1289 23.1266 33.9664C25.0404 36.8038 31.1097 36.2038 36.6386 32.6091Z" fill="#8ED16F"/>
<path d="M33.2202 28.2057C31.4349 29.1365 29.7897 29.35 29.5456 28.6825C29.3014 28.015 30.5508 26.7194 32.3361 25.7886C34.1214 24.8578 35.7666 24.6444 36.0108 25.3118C36.2549 25.9793 35.0056 27.275 33.2202 28.2057Z" fill="black" fill-opacity="0.3"/>
<path d="M58.6013 14.1569C59.7986 20.7272 54.6877 26.9785 54.6877 26.9785C54.6877 26.9785 47.6274 22.5666 46.4302 15.9962C45.2329 9.42587 46.9883 3.689 50.3438 3.1746C53.6992 2.66021 57.4041 7.5865 58.6013 14.1569Z" fill="#8ED16F"/>
<path d="M52.9636 18.8502C52.1867 18.967 51.2524 17.3901 50.8768 15.3282C50.5012 13.2662 50.8266 11.5 51.6035 11.3832C52.3803 11.2664 53.3146 12.8433 53.6902 14.9053C54.0658 16.9672 53.7405 18.7334 52.9636 18.8502Z" fill="black" fill-opacity="0.3"/>
<path d="M77.7638 25.5787C76.6913 32.1057 69.7096 36.2331 69.7096 36.2331C69.7096 36.2331 64.4721 29.7836 65.5417 23.2605C66.6113 16.7373 70.2001 11.9505 73.5959 12.6061C76.9916 13.2616 78.8363 19.0516 77.7638 25.5787Z" fill="#8ED16F"/>
<path d="M70.9562 28.0776C70.2019 28.0041 69.8 26.2825 70.0585 24.2324C70.3171 22.1822 71.1382 20.5799 71.8925 20.6534C72.6468 20.7269 73.0487 22.4485 72.7901 24.4986C72.5316 26.5488 71.7105 28.1511 70.9562 28.0776Z" fill="black" fill-opacity="0.3"/>
</svg>
