<svg width="19" height="22" viewBox="0 0 19 22" fill="none" xmlns="http://www.w3.org/2000/svg">
<path fill-rule="evenodd" clip-rule="evenodd" d="M8.9075 0.194429C9.25996 -0.0648098 9.74004 -0.0648098 10.0925 0.194429L12.74 2.14168C14.3306 3.3116 15.4158 5.01457 15.8221 6.90784L18.7071 9.79289C18.8946 9.98043 19 10.2348 19 10.5V14.5C19 14.8466 18.8205 15.1684 18.5257 15.3507C18.2309 15.5329 17.8628 15.5494 17.5528 15.3944L16 14.618V17.5C16 18.0523 15.5523 18.5 15 18.5H13.5V20C13.5 20.5523 13.0523 21 12.5 21C11.9477 21 11.5 20.5523 11.5 20V18.5H10.5V21C10.5 21.5523 10.0523 22 9.5 22C8.94772 22 8.5 21.5523 8.5 21V18.5H7.5V20C7.5 20.5523 7.05228 21 6.5 21C5.94772 21 5.5 20.5523 5.5 20V18.5H4C3.44772 18.5 3 18.0523 3 17.5V14.618L1.44721 15.3944C1.13723 15.5494 0.769085 15.5329 0.474269 15.3507C0.179452 15.1684 0 14.8466 0 14.5V10.5C0 10.2348 0.105357 9.98043 0.292893 9.79289L3.17795 6.90784C3.58421 5.01457 4.66936 3.3116 6.26 2.14168L8.9075 0.194429ZM5 8.58624V16.5H14V8.58624C14 6.67796 13.0923 4.88347 11.555 3.75282L9.5 2.24136L7.445 3.75282C5.90775 4.88347 5 6.67796 5 8.58624ZM3 9.91421V12.382L2 12.882V10.9142L3 9.91421ZM16 12.382L17 12.882V10.9142L16 9.91421V12.382Z" fill="#60944C"/>
</svg>
