<svg width="22" height="22" viewBox="0 0 22 22" fill="none" xmlns="http://www.w3.org/2000/svg">
<path d="M11.0002 0C11.513 0 11.9357 0.38604 11.9934 0.883379L12.0002 1V7.218L16.7576 6.02986L16.8012 6.01972C16.8229 6.01531 16.8446 6.01165 16.8664 6.00872L16.7576 6.02986C16.8056 6.01786 16.8537 6.00954 16.9015 6.00474C16.9246 6.00248 16.9481 6.00096 16.9716 6.00026C16.989 5.99968 17.0065 5.99963 17.0239 6.00003C17.0432 6.00053 17.0626 6.00154 17.082 6.00311C17.1046 6.00494 17.1271 6.00755 17.1493 6.01092C17.1607 6.01262 17.1727 6.01464 17.1847 6.01689C17.2078 6.02128 17.2301 6.02631 17.2522 6.03209C17.2679 6.03611 17.2836 6.04062 17.2992 6.04554C17.3175 6.05134 17.3359 6.05772 17.3541 6.06464C17.3725 6.07157 17.3908 6.07912 17.4089 6.08726C17.4118 6.08861 17.4148 6.08994 17.4177 6.09129L17.4276 6.09588C17.4358 6.09972 17.4439 6.10369 17.452 6.10776C17.4668 6.11539 17.4816 6.12337 17.4963 6.13176L17.5088 6.13904C17.5163 6.14346 17.5237 6.14797 17.5311 6.15259C17.5388 6.15719 17.5466 6.16217 17.5542 6.16726C17.5561 6.16874 17.5577 6.16986 17.5594 6.17098L17.4963 6.13176C17.5321 6.15222 17.5662 6.17456 17.5984 6.19858C17.601 6.20058 17.6032 6.20227 17.6055 6.20397L17.6189 6.21406C17.6343 6.22618 17.6494 6.23879 17.6642 6.25188C17.6769 6.26329 17.6894 6.27491 17.7015 6.2868C17.7151 6.30019 17.7287 6.31439 17.742 6.32905C17.7574 6.34606 17.7723 6.36368 17.7865 6.38172C17.7926 6.38979 17.7987 6.39781 17.8047 6.40594L17.8171 6.42282C17.8277 6.43789 17.8379 6.45322 17.8476 6.46879L17.8684 6.50386L21.8684 13.5039L21.8835 13.5307C21.8927 13.5481 21.9015 13.5658 21.9097 13.5838L21.8684 13.5039C21.8932 13.5473 21.9145 13.5918 21.9321 13.6371C21.9385 13.653 21.9443 13.669 21.9496 13.6853C21.9562 13.7052 21.9623 13.7256 21.9676 13.746C21.9724 13.7644 21.9767 13.7827 21.9804 13.8012C21.9838 13.8177 21.9867 13.8341 21.9892 13.8505C21.9964 13.899 22.0002 13.949 22.0002 14L21.9962 13.9082C21.9982 13.9296 21.9994 13.951 22 13.9723L22.0002 14C22.0002 16.7614 19.7616 19 17.0002 19C14.2387 19 12.0002 16.7614 12.0002 14L12.0016 14.0556C11.9988 14.0061 11.9997 13.9561 12.0043 13.9062C12.0063 13.8872 12.0086 13.8685 12.0113 13.85C12.0136 13.8341 12.0165 13.8177 12.0198 13.8014C12.0237 13.7827 12.0279 13.7644 12.0326 13.7463C12.0381 13.7256 12.0442 13.7052 12.0509 13.6849C12.0561 13.669 12.0619 13.653 12.0681 13.6371C12.0719 13.6275 12.0758 13.618 12.0799 13.6085L12.0906 13.5838C12.0989 13.5658 12.1076 13.5481 12.1169 13.5307L12.1319 13.5039L14.9682 8.539L6.52317 10.65L9.86841 16.5039L9.88346 16.5307C9.89272 16.5481 9.90148 16.5658 9.90972 16.5838L9.86841 16.5039C9.89324 16.5473 9.91445 16.5918 9.93214 16.6371C9.93847 16.653 9.94426 16.669 9.94965 16.6853C9.95619 16.7052 9.96226 16.7256 9.96764 16.746C9.97244 16.7644 9.97668 16.7827 9.98041 16.8012C9.98383 16.8177 9.98672 16.8341 9.9892 16.8505C9.99636 16.899 10.0002 16.949 10.0002 17L9.99619 16.9082C9.99815 16.9296 9.99941 16.951 9.99998 16.9723L10.0002 17C10.0002 19.7614 7.76161 22 5.00017 22C2.23874 22 0.000171107 19.7614 0.000171107 17L0.0016021 17.0556C-0.0012077 17.0061 -0.000336173 16.9561 0.00433199 16.9062C0.00628358 16.8872 0.00855899 16.8685 0.0113411 16.85C0.0136191 16.8341 0.0165098 16.8177 0.0198209 16.8014C0.0236653 16.7827 0.0279051 16.7644 0.0326397 16.7463C0.0380864 16.7256 0.0441522 16.7052 0.0509035 16.6849C0.0560808 16.669 0.0618743 16.653 0.068062 16.6371C0.0719463 16.6275 0.0758483 16.618 0.079909 16.6085L0.0906232 16.5838C0.0988651 16.5658 0.107625 16.5481 0.116883 16.5307L0.131928 16.5039L4.13193 9.50386L4.13978 9.49036C4.14545 9.48079 4.15128 9.47131 4.15727 9.46193C4.16216 9.45388 4.16734 9.44601 4.17263 9.4382L4.18117 9.426L4.19563 9.40594C4.19693 9.40418 4.19823 9.40242 4.19954 9.40067C4.20645 9.39155 4.21327 9.38275 4.22023 9.37406C4.22665 9.36572 4.23332 9.35767 4.24013 9.3497L4.25729 9.33026C4.26886 9.3174 4.28073 9.30489 4.29286 9.29274C4.30113 9.28448 4.30951 9.2764 4.31806 9.26845L4.33115 9.25639C4.34827 9.24099 4.36585 9.22624 4.38387 9.21216C4.39141 9.20645 4.39871 9.20091 4.40611 9.19546L4.41892 9.18598C4.42664 9.18048 4.43442 9.17509 4.44228 9.16982C4.45053 9.16421 4.45866 9.15893 4.46688 9.15375C4.47908 9.14637 4.49145 9.13895 4.50403 9.13176L4.51862 9.12342C4.55782 9.10193 4.59834 9.08314 4.63987 9.06713C4.64197 9.06624 4.64405 9.06545 4.64613 9.06467L4.69057 9.04912C4.69759 9.04684 4.70464 9.04463 4.71171 9.04251C4.72186 9.0392 4.73257 9.03616 4.74331 9.0333C4.74523 9.03304 4.74654 9.0327 4.74785 9.03236L4.75764 9.02986L10.0002 7.718V1C10.0002 0.447715 10.4479 0 11.0002 0ZM7.82917 18H2.17017L2.24688 18.1933C2.68614 19.2054 3.66709 19.9279 4.8239 19.9949L5.00017 20C6.30199 20 7.41014 19.1708 7.82528 18.0118L7.82917 18ZM19.8292 15H14.1702L14.2469 15.1933C14.6861 16.2054 15.6671 16.9279 16.8239 16.9949L17.0002 17C18.302 17 19.4101 16.1708 19.8253 15.0118L19.8292 15ZM5.00017 12.016L2.72317 16H7.27617L5.00017 12.016ZM17.0002 9.016L14.7232 13H19.2762L17.0002 9.016Z" fill="#60944C"/>
</svg>
