<svg width="22" height="16" viewBox="0 0 22 16" fill="none" xmlns="http://www.w3.org/2000/svg">
<path fill-rule="evenodd" clip-rule="evenodd" d="M0 1C0 0.447715 0.447715 0 1 0H17C17.5523 0 18 0.447715 18 1V4.22285L20.3551 2.23571C20.6525 1.98477 21.0685 1.92915 21.4214 2.09312C21.7743 2.25709 22 2.61088 22 3V13C22 13.3891 21.7743 13.7429 21.4214 13.9069C21.0685 14.0709 20.6525 14.0152 20.3551 13.7643L18 11.7772V15C18 15.5523 17.5523 16 17 16H1C0.447715 16 0 15.5523 0 15V1ZM18 9.16035L20 10.8478V5.15215L18 6.83965V9.16035ZM16 2H2V14H16V2ZM6.73178 4.85982C7.08534 4.43554 7.71591 4.37821 8.14018 4.73178L11.1402 7.23178C11.3682 7.42177 11.5 7.70322 11.5 8C11.5 8.29678 11.3682 8.57823 11.1402 8.76822L8.14018 11.2682C7.71591 11.6218 7.08534 11.5645 6.73178 11.1402C6.37821 10.7159 6.43554 10.0853 6.85982 9.73178L8.93795 8L6.85982 6.26822C6.43554 5.91466 6.37821 5.28409 6.73178 4.85982Z" fill="#60944C"/>
</svg>
