<svg width="17" height="22" viewBox="0 0 17 22" fill="none" xmlns="http://www.w3.org/2000/svg">
<path fill-rule="evenodd" clip-rule="evenodd" d="M4.5 11C4.5 9.34317 5.84317 8 7.5 8C9.15683 8 10.5 9.34317 10.5 11C10.5 12.6569 9.15682 14 7.5 14C5.84318 14 4.5 12.6569 4.5 11ZM7.5 10C6.94773 10 6.5 10.4477 6.5 11C6.5 11.5523 6.94772 12 7.5 12C8.05228 12 8.5 11.5523 8.5 11C8.5 10.4477 8.05227 10 7.5 10Z" fill="#60944C"/>
<path fill-rule="evenodd" clip-rule="evenodd" d="M2.69101 4L3.34142 1.16772C3.503 0.464311 4.13351 0 4.82045 0H10.1918C10.8788 0 11.5093 0.464251 11.6709 1.16766L12.3213 4H14C14.5523 4 15 4.44772 15 5V6.13378C15.1471 6.0487 15.3179 6 15.5 6C16.0523 6 16.5 6.44772 16.5 7V9C16.5 9.55228 16.0523 10 15.5 10C15.3179 10 15.1471 9.9513 15 9.86622V17C15 17.5523 14.5523 18 14 18H12.3213L11.6709 20.8323C11.5093 21.5358 10.8787 22 10.1918 22H4.82045C4.13357 22 3.50303 21.5358 3.34144 20.8324L2.691 18H1C0.447715 18 0 17.5523 0 17V5C0 4.44772 0.447715 4 1 4H2.69101ZM4.74306 4L5.20235 2H9.80995L10.2692 4H4.74306ZM4.74306 18H10.2692L9.80996 20H5.20234L4.74306 18ZM13 16H2V6H13V16Z" fill="#60944C"/>
</svg>
