<svg width="242" height="169" viewBox="0 0 242 169" fill="none" xmlns="http://www.w3.org/2000/svg">
<path d="M180.573 13.2562C181.276 19.1507 187.133 23.2236 187.133 23.2236C187.133 23.2236 191.844 17.7379 191.141 11.8433C190.437 5.94874 187.509 1.48614 184.58 1.87585C181.651 2.26556 179.869 7.36156 180.573 13.2562Z" fill="#8ED16F"/>
<path d="M185.239 12.9355C184.777 11.1759 184.773 9.56513 185.231 9.33785C185.689 9.11056 186.434 10.3528 186.896 12.1124C187.358 13.8721 187.362 15.4828 186.904 15.7101C186.447 15.9374 185.701 14.6951 185.239 12.9355Z" fill="black" fill-opacity="0.3"/>
<path d="M180.761 39.1422C185.949 41.7049 192.48 38.8266 192.48 38.8266C192.48 38.8266 190.599 31.7969 185.407 29.2381C180.214 26.6793 174.971 26.8391 173.687 29.5537C172.403 32.2682 175.573 36.5795 180.761 39.1422Z" fill="#8ED16F"/>
<path d="M182.553 34.5913C181.052 33.6608 180.154 32.5148 180.548 32.0318C180.943 31.5487 182.48 31.9114 183.981 32.8419C185.483 33.7724 186.381 34.9183 185.986 35.4014C185.592 35.8844 184.055 35.5217 182.553 34.5913Z" fill="black" fill-opacity="0.3"/>
<path d="M179.913 59.6679C185.101 62.2306 191.633 59.3523 191.633 59.3523C191.633 59.3523 189.751 52.3225 184.559 49.7638C179.366 47.205 174.123 47.3648 172.839 50.0793C171.555 52.7939 174.725 57.1096 179.913 59.6679Z" fill="#8ED16F"/>
<path d="M181.609 55.4137C180.107 54.4841 179.209 53.3396 179.604 52.8574C179.999 52.3751 181.536 52.7378 183.038 53.6673C184.541 54.5969 185.438 55.7414 185.044 56.2237C184.649 56.7059 183.111 56.3433 181.609 55.4137Z" fill="black" fill-opacity="0.3"/>
<path d="M204.519 47.4542C200.097 51.2994 193.091 50.2415 193.091 50.2415C193.091 50.2415 193.259 42.9384 197.681 39.0932C202.103 35.2481 207.218 34.0042 209.109 36.3059C210.999 38.6077 208.941 43.609 204.519 47.4542Z" fill="#8ED16F"/>
<path d="M198.453 45.3012C198.017 44.7672 198.788 43.3562 200.176 42.1496C201.564 40.9429 203.042 40.3977 203.478 40.9316C203.914 41.4656 203.143 42.8766 201.755 44.0832C200.367 45.2898 198.889 45.8352 198.453 45.3012Z" fill="black" fill-opacity="0.3"/>
<path d="M199.06 71.0307C193.654 73.1437 187.414 69.7232 187.414 69.7232C187.414 69.7232 189.936 62.8833 195.337 60.7699C200.739 58.6564 205.958 59.2214 206.983 62.0774C208.009 64.9334 204.466 68.9177 199.06 71.0307Z" fill="#8ED16F"/>
<path d="M194.126 67.0125C193.844 66.4104 194.963 65.3363 196.626 64.6135C198.289 63.8907 199.866 63.7929 200.148 64.3951C200.43 64.9972 199.311 66.0713 197.648 66.794C195.985 67.5168 194.409 67.6146 194.126 67.0125Z" fill="black" fill-opacity="0.3"/>
<path d="M117.542 108.986C116.412 110.347 115.824 112.514 116.524 114.722C117.331 117.26 119.513 119.098 120.903 121.408C125.452 128.979 120.278 138.729 125.46 145.791C127.52 148.599 130.546 149.87 133.341 150.766C137.812 152.191 142.422 153.104 146.393 151.957C152.421 150.219 156.371 143.936 162.752 143.24C167.899 142.678 173.751 145.887 178.941 145.478C182.892 145.167 186.078 142.797 189.131 140.475C190.779 139.225 192.487 137.882 193.16 135.626C194.41 131.426 191.699 125.856 191.448 120.975C191.064 113.446 196.581 109.027 202.349 107.497C208.118 105.967 214.642 106.235 219.736 103.256C220.824 102.619 221.856 101.81 222.433 100.545C223.135 99.0089 223.087 96.9768 222.954 95.0104C222.109 82.6837 218.523 69.9781 212.559 58.1761C211.532 56.1489 210.377 54.0781 208.757 52.6644C206.707 50.8756 204.264 50.4454 202.06 50.4506C196.764 50.4593 191.991 52.5151 186.633 52.2019C181.466 51.8998 176.107 49.4226 170.82 47.6644C160.294 44.1744 149.856 43.487 140.306 45.6546C138.069 46.1646 135.836 46.8629 134.203 48.4908C132.321 50.3664 131.398 53.3118 130.747 56.3022C129.016 64.2572 128.883 73.0193 127.794 81.3129C127.042 87.0329 125.836 92.5246 124.189 97.7243C123.433 100.122 122.732 102.865 121.581 104.949C120.526 106.856 118.874 107.383 117.542 108.986Z" fill="#486478" fill-opacity="0.52"/>
<path d="M14.8251 59.3234C14.8251 59.3234 44.4559 60.7426 41.4056 87.7601C38.3553 114.778 90.0055 129.66 90.0055 129.66C90.0055 129.66 89.5984 129.826 88.8769 130.124C39.3113 150.188 0.20286 130.685 14.7634 93.0974C20.183 79.1202 23.0991 64.5463 14.8251 59.3234Z" fill="#73AC50"/>
<path d="M27.9234 24.0582C27.9234 24.0582 51.3226 39.2818 47.235 70.7166C43.1474 102.151 83.1658 143.756 83.1658 143.756C83.1658 143.756 82.8437 143.78 82.2427 143.806C41.7107 145.591 11.9256 104.092 25.7878 65.0626C30.9317 50.5534 34.1589 34.1746 27.9234 24.0582Z" fill="#8EBE71"/>
<circle cx="116" cy="83" r="75" fill="#60944C"/>
<path d="M122.317 72.5222C123.04 73.0838 124.051 73.0839 124.773 72.5224L142.675 58.6042C143.397 58.0427 144.408 58.0428 145.13 58.6045L146.348 59.5513C147.377 60.352 147.377 61.908 146.348 62.7087L124.745 79.5104C124.023 80.0721 123.012 80.0721 122.29 79.5104L100.686 62.7073C99.6567 61.907 99.6561 60.3521 100.684 59.551L101.932 58.5789C102.654 58.0162 103.666 58.0157 104.389 58.5779L122.317 72.5222Z" fill="#EAF1EC"/>
<path d="M122.317 84.3168C123.04 84.8784 124.051 84.8785 124.773 84.317L142.675 70.3988C143.397 69.8373 144.408 69.8374 145.13 70.3991L146.348 71.3459C147.377 72.1466 147.377 73.7026 146.348 74.5033L124.745 91.305C124.023 91.8667 123.012 91.8667 122.29 91.305L100.686 74.5019C99.6567 73.7016 99.6561 72.1467 100.684 71.3456L101.932 70.3735C102.654 69.8108 103.666 69.8103 104.389 70.3725L122.317 84.3168Z" fill="#EAF1EC"/>
<path d="M124.746 67.7157C124.023 68.2775 123.012 68.2771 122.29 67.7149L103.188 52.8434L100.695 50.9133C99.6627 50.1136 99.661 48.555 100.692 47.7533L122.29 30.955C123.012 30.3933 124.023 30.3933 124.745 30.955L146.349 47.7581C147.378 48.5584 147.379 50.1133 146.351 50.9144L143.875 52.8434L124.746 67.7157Z" fill="#EAF1EC"/>
<path d="M139.988 86.255C140.71 86.8167 141.721 86.8168 142.443 86.2553L160.345 72.3371C161.067 71.7756 162.078 71.7757 162.8 72.3373L164.018 73.2841C165.047 74.0848 165.047 75.6408 164.018 76.4415L142.416 93.2432C141.693 93.805 140.682 93.8049 139.96 93.2432L118.356 76.4402C117.327 75.6399 117.326 74.085 118.355 73.2838L119.602 72.3117C120.324 71.749 121.337 71.7486 122.059 72.3107L139.988 86.255Z" fill="#EAF1EC"/>
<path d="M139.988 98.0496C140.71 98.6113 141.721 98.6114 142.443 98.0499L160.345 84.1317C161.067 83.5702 162.078 83.5703 162.8 84.1319L164.018 85.0787C165.047 85.8794 165.047 87.4354 164.018 88.2361L142.416 105.038C141.693 105.6 140.682 105.6 139.96 105.038L118.356 88.2348C117.327 87.4345 117.326 85.8795 118.355 85.0784L119.602 84.1063C120.324 83.5436 121.337 83.5432 122.059 84.1053L139.988 98.0496Z" fill="#EAF1EC"/>
<path d="M142.416 81.4486C141.694 82.0103 140.682 82.01 139.96 81.4478L120.858 66.5762L118.365 64.6461C117.333 63.8465 117.331 62.2879 118.362 61.4861L139.96 44.6879C140.682 44.1261 141.693 44.1261 142.416 44.6879L164.02 61.4909C165.049 62.2912 165.049 63.8461 164.021 64.6473L161.545 66.5762L142.416 81.4486Z" fill="#EAF1EC"/>
<path d="M121.88 98.2587L127.315 102.445C128.986 103.732 127.786 106.393 125.716 105.993L122.323 105.338C122.014 105.278 121.723 105.146 121.474 104.953L99.0205 87.489C97.9916 86.6887 97.9909 85.1338 99.0192 84.3326L100.267 83.3606C100.989 82.7978 102.001 82.7974 102.724 83.3595L121.88 98.2587Z" fill="#EAF1EC"/>
<path d="M121.88 110.053L127.926 114.741C129.661 116.086 128.276 118.839 126.162 118.247L122.231 117.148C121.981 117.078 121.747 116.96 121.542 116.8L99.0205 99.2836C97.9916 98.4833 97.9909 96.9284 99.0192 96.1272L100.267 95.1551C100.989 94.5924 102.001 94.592 102.724 95.1541L121.88 110.053Z" fill="#EAF1EC"/>
<path d="M123.081 92.4974C122.358 93.0591 121.347 93.0588 120.625 92.4966L101.523 77.625L99.0301 75.6949C97.9975 74.8953 97.9959 73.3367 99.0267 72.5349L120.624 55.7367C121.347 55.1749 122.358 55.1749 123.08 55.7367L144.684 72.5397C145.713 73.34 145.714 74.8949 144.686 75.6961L142.21 77.625L123.081 92.4974Z" fill="#EAF1EC"/>
<path d="M145.512 116.639C146.234 117.201 147.245 117.201 147.968 116.639L165.869 102.721C166.592 102.16 167.603 102.16 168.325 102.722L169.542 103.668C170.572 104.469 170.572 106.025 169.542 106.826L147.94 123.627C147.218 124.189 146.207 124.189 145.484 123.627L123.88 106.824C122.851 106.024 122.851 104.469 123.879 103.668L125.127 102.696C125.849 102.133 126.861 102.133 127.584 102.695L145.512 116.639Z" fill="#EAF1EC"/>
<path d="M145.512 128.434C146.234 128.995 147.245 128.996 147.968 128.434L165.869 114.516C166.592 113.954 167.603 113.954 168.325 114.516L169.542 115.463C170.572 116.264 170.572 117.82 169.542 118.62L147.94 135.422C147.218 135.984 146.207 135.984 145.484 135.422L123.88 118.619C122.851 117.819 122.851 116.264 123.879 115.463L125.127 114.491C125.849 113.928 126.861 113.927 127.584 114.49L145.512 128.434Z" fill="#EAF1EC"/>
<path d="M147.941 111.833C147.218 112.395 146.207 112.394 145.484 111.832L126.382 96.9605L123.89 95.0303C122.857 94.2307 122.856 92.6721 123.887 91.8703L145.484 75.0721C146.207 74.5103 147.218 74.5103 147.94 75.0721L169.544 91.8751C170.573 92.6754 170.574 94.2303 169.545 95.0315L167.07 96.9605L147.941 111.833Z" fill="#EAF1EC"/>
<path d="M84.8874 103.861L87.1142 105.561C88.0997 106.313 88.1706 107.771 87.2627 108.615L86.1061 109.691C85.3876 110.359 84.2907 110.407 83.5163 109.805L62.0279 93.0916C60.999 92.2913 60.9983 90.7364 62.0266 89.9352L63.2742 88.9632C63.9964 88.4004 65.0085 88.4 65.7313 88.9621L84.8874 103.861Z" fill="#EAF1EC"/>
<path d="M84.8874 115.656L87.7222 118.065C88.8076 118.987 88.6086 120.716 87.3421 121.367L85.9949 122.06C85.3026 122.416 84.4666 122.338 83.8521 121.861L62.0279 104.886C60.999 104.086 60.9983 102.531 62.0266 101.73L63.2742 100.758C63.9964 100.195 65.0085 100.195 65.7313 100.757L84.8874 115.656Z" fill="#EAF1EC"/>
<path d="M86.0882 98.1C85.3657 98.6617 84.3541 98.6614 83.6319 98.0992L64.5299 83.2276L62.0375 81.2975C61.0049 80.4979 61.0033 78.9393 62.0341 78.1375L83.6319 61.3393C84.3541 60.7775 85.3654 60.7775 86.0876 61.3393L107.692 78.1423C108.72 78.9426 108.721 80.4975 107.693 81.2987L105.217 83.2276L86.0882 98.1Z" fill="#EAF1EC"/>
<path d="M101.317 116.639C102.039 117.201 103.05 117.201 103.772 116.639L121.674 102.721C122.396 102.16 123.408 102.16 124.13 102.722L125.347 103.668C126.377 104.469 126.376 106.025 125.347 106.826L103.745 123.627C103.023 124.189 102.011 124.189 101.289 123.627L79.6851 106.824C78.6562 106.024 78.6555 104.469 79.6838 103.668L80.9314 102.696C81.6536 102.133 82.6658 102.133 83.3885 102.695L101.317 116.639Z" fill="#EAF1EC"/>
<path d="M101.317 128.434C102.039 128.996 103.05 128.996 103.772 128.434L121.674 114.516C122.396 113.954 123.408 113.954 124.13 114.516L125.347 115.463C126.377 116.264 126.376 117.82 125.347 118.62L103.745 135.422C103.023 135.984 102.011 135.984 101.289 135.422L79.6851 118.619C78.6562 117.819 78.6555 116.264 79.6838 115.463L80.9314 114.491C81.6536 113.928 82.6658 113.927 83.3885 114.49L101.317 128.434Z" fill="#EAF1EC"/>
<path d="M103.745 111.833C103.023 112.395 102.011 112.394 101.289 111.832L82.1872 96.9605L79.6947 95.0303C78.6621 94.2307 78.6605 92.6721 79.6913 91.8703L101.289 75.0721C102.011 74.5104 103.023 74.5104 103.745 75.0721L125.349 91.8751C126.378 92.6754 126.378 94.2304 125.35 95.0315L122.874 96.9605L103.745 111.833Z" fill="#EAF1EC"/>
</svg>
