<svg width="20" height="21" viewBox="0 0 20 21" fill="none" xmlns="http://www.w3.org/2000/svg">
<path fill-rule="evenodd" clip-rule="evenodd" d="M19.1191 0.214715C19.3596 0.40434 19.5 0.693729 19.5 1.00001V5.04212C19.5003 5.05631 19.5003 5.07047 19.5 5.08459V16.2C19.5 17.7464 18.2464 19 16.7 19H14.75C13.2312 19 12 17.7688 12 16.25C12 14.7312 13.2312 13.5 14.75 13.5H17.5V6.32691L7 8.81289V18.2C7 19.7464 5.74638 21 4.2 21H2.75C1.23122 21 0 19.7688 0 18.25C0 16.7312 1.23122 15.5 2.75 15.5H5V8.04238C4.9997 8.0282 4.9997 8.01405 5 7.99995V4.00001C5 3.53762 5.31701 3.13553 5.76663 3.02762L18.2666 0.0276218C18.5644 -0.0438556 18.8786 0.0250904 19.1191 0.214715ZM7 6.7576L17.5 4.27162V2.26841L7 4.78841V6.7576ZM5 17.5H2.75C2.33578 17.5 2 17.8358 2 18.25C2 18.6642 2.33578 19 2.75 19H4.2C4.64182 19 5 18.6418 5 18.2V17.5ZM17.5 15.5H14.75C14.3358 15.5 14 15.8358 14 16.25C14 16.6642 14.3358 17 14.75 17H16.7C17.1418 17 17.5 16.6418 17.5 16.2V15.5Z" fill="#60944C"/>
</svg>
