<svg width="100" height="100" viewBox="0 0 100 100" fill="none" xmlns="http://www.w3.org/2000/svg">
<circle cx="50" cy="50" r="50" fill="#60944C"/>
<path d="M54.3622 41.7638C55.0844 42.3255 56.0955 42.3256 56.8177 41.7641L66.6345 34.1318C67.2214 33.6755 68.043 33.6755 68.6298 34.1319C69.4664 34.7826 69.4664 36.047 68.6298 36.6977L56.8014 45.8976C56.0792 46.4593 55.0679 46.4593 54.3457 45.8976L42.5273 36.7055C41.6853 36.0507 41.6848 34.7783 42.5262 34.1227C43.1172 33.6622 43.9454 33.6619 44.5368 34.1218L54.3622 41.7638Z" fill="#EAF1EC"/>
<path d="M54.3622 48.7409C55.0844 49.3025 56.0955 49.3026 56.8177 48.7411L66.6345 41.1088C67.2214 40.6525 68.043 40.6526 68.6298 41.109C69.4664 41.7597 69.4664 43.0241 68.6298 43.6747L56.8014 52.8746C56.0792 53.4364 55.0679 53.4364 54.3457 52.8746L42.5273 43.6826C41.6853 43.0277 41.6848 41.7553 42.5262 41.0997C43.1172 40.6393 43.9454 40.6389 44.5368 41.0989L54.3622 48.7409Z" fill="#EAF1EC"/>
<path d="M56.802 38.9205C56.0795 39.4822 55.0679 39.4819 54.3458 38.9197L43.5475 30.5129L42.9054 30.0156C41.8728 29.216 41.8712 27.6574 42.902 26.8556L54.3457 17.955C55.0679 17.3933 56.0792 17.3933 56.8014 17.955L68.2513 26.8605C69.2802 27.6607 69.2809 29.2157 68.2526 30.0168L67.6159 30.5129L56.802 38.9205Z" fill="#EAF1EC"/>
<path d="M64.815 49.8874C65.5371 50.4491 66.5482 50.4492 67.2704 49.8877L77.0872 42.2553C77.6741 41.7991 78.4958 41.7991 79.0826 42.2555C79.9192 42.9062 79.9192 44.1706 79.0826 44.8213L67.2542 54.0212C66.5319 54.5829 65.5206 54.5829 64.7984 54.0212L52.9801 44.8291C52.1381 44.1743 52.1375 42.9019 52.979 42.2463C53.57 41.7858 54.3982 41.7855 54.9896 42.2454L64.815 49.8874Z" fill="#EAF1EC"/>
<path d="M64.815 56.8645C65.5371 57.4261 66.5482 57.4262 67.2704 56.8647L77.0872 49.2324C77.6741 48.7761 78.4958 48.7762 79.0826 49.2326C79.9192 49.8833 79.9192 51.1477 79.0826 51.7983L67.2542 60.9982C66.5319 61.5599 65.5206 61.5599 64.7984 60.9982L52.9801 51.8062C52.1381 51.1513 52.1375 49.8789 52.979 49.2233C53.57 48.7629 54.3982 48.7625 54.9896 49.2225L64.815 56.8645Z" fill="#EAF1EC"/>
<path d="M67.2547 47.0441C66.5322 47.6058 65.5206 47.6055 64.7985 47.0433L54.0003 38.6365L53.3581 38.1392C52.3255 37.3396 52.3239 35.781 53.3548 34.9792L64.7984 26.0786C65.5206 25.5169 66.5319 25.5169 67.2542 26.0786L78.704 34.9841C79.733 35.7843 79.7336 37.3393 78.7054 38.1404L78.0686 38.6365L67.2547 47.0441Z" fill="#EAF1EC"/>
<path d="M54.6049 57.3781L56.2877 58.6742C57.6588 59.7303 56.6739 61.9149 54.9746 61.5867C54.7208 61.5376 54.4822 61.4293 54.2781 61.2706L41.5423 51.365C40.7003 50.7101 40.6998 49.4378 41.5412 48.7822C42.1322 48.3217 42.9604 48.3214 43.5518 48.7813L54.6049 57.3781Z" fill="#EAF1EC"/>
<path d="M54.6049 64.3552L56.3439 65.7034C57.7651 66.8052 56.6304 69.0604 54.8987 68.5759C54.6939 68.5186 54.5022 68.422 54.3343 68.2914L41.5423 58.342C40.7003 57.6872 40.6998 56.4148 41.5412 55.7592C42.1322 55.2987 42.9604 55.2984 43.5518 55.7584L54.6049 64.3552Z" fill="#EAF1EC"/>
<path d="M55.8169 53.58C55.0945 54.1417 54.0829 54.1413 53.3607 53.5792L42.5625 45.1724L41.9204 44.6751C40.8878 43.8755 40.8861 42.3169 41.917 41.5151L53.3607 32.6145C54.0829 32.0528 55.0942 32.0528 55.8164 32.6145L67.2663 41.5199C68.2952 42.3202 68.2959 43.8751 67.2676 44.6763L66.6309 45.1724L55.8169 53.58Z" fill="#EAF1EC"/>
<path d="M68.083 67.8611C68.8051 68.4227 69.8162 68.4228 70.5384 67.8613L80.3552 60.229C80.9421 59.7727 81.7638 59.7728 82.3506 60.2292C83.1872 60.8799 83.1872 62.1443 82.3506 62.795L70.5222 71.9948C69.7999 72.5566 68.7886 72.5566 68.0664 71.9948L56.248 62.8028C55.4061 62.1479 55.4055 60.8755 56.247 60.22C56.838 59.7595 57.6662 59.7591 58.2576 60.2191L68.083 67.8611Z" fill="#EAF1EC"/>
<path d="M68.083 74.8381C68.8051 75.3998 69.8162 75.3999 70.5384 74.8384L80.3552 67.206C80.9421 66.7498 81.7638 66.7498 82.3506 67.2062C83.1872 67.8569 83.1872 69.1213 82.3506 69.772L70.5222 78.9719C69.7999 79.5336 68.7886 79.5336 68.0664 78.9719L56.248 69.7798C55.4061 69.125 55.4055 67.8526 56.247 67.197C56.838 66.7365 57.6662 66.7362 58.2576 67.1962L68.083 74.8381Z" fill="#EAF1EC"/>
<path d="M70.5227 65.0177C69.8002 65.5795 68.7886 65.5791 68.0665 65.0169L57.2683 56.6102L56.6261 56.1129C55.5935 55.3133 55.5919 53.7547 56.6228 52.9529L68.0664 44.0523C68.7886 43.4905 69.7999 43.4905 70.5222 44.0523L81.972 52.9577C83.0009 53.758 83.0016 55.3129 81.9733 56.1141L81.3366 56.6102L70.5227 65.0177Z" fill="#EAF1EC"/>
<path d="M32.722 60.6923L33.6069 61.3676C34.4158 61.985 34.474 63.182 33.7288 63.875C33.139 64.4233 32.2386 64.463 31.603 63.9686L19.6595 54.6792C18.8175 54.0243 18.817 52.7519 19.6584 52.0964C20.2494 51.6359 21.0776 51.6355 21.669 52.0955L32.722 60.6923Z" fill="#EAF1EC"/>
<path d="M32.722 67.6694L33.9204 68.6876C34.7905 69.4269 34.631 70.8129 33.6157 71.3352C33.0607 71.6207 32.3906 71.5582 31.8979 71.175L19.6595 61.6562C18.8175 61.0014 18.817 59.729 19.6584 59.0734C20.2494 58.6129 21.0776 58.6126 21.669 59.0726L32.722 67.6694Z" fill="#EAF1EC"/>
<path d="M33.9341 56.8941C33.2116 57.4559 32.2 57.4555 31.4779 56.8933L20.6797 48.4866L20.0375 47.9893C19.005 47.1897 19.0033 45.6311 20.0342 44.8293L31.4778 35.9287C32.2 35.367 33.2114 35.367 33.9336 35.9287L45.3834 44.8341C46.4124 45.6344 46.413 47.1893 45.3848 47.9905L44.7481 48.4866L33.9341 56.8941Z" fill="#EAF1EC"/>
<path d="M41.9395 67.8611C42.6616 68.4227 43.6727 68.4228 44.3949 67.8613L54.2117 60.229C54.7986 59.7727 55.6202 59.7728 56.207 60.2292C57.0436 60.8799 57.0436 62.1443 56.207 62.795L44.3786 71.9948C43.6564 72.5566 42.6451 72.5566 41.9229 71.9948L30.1045 62.8028C29.2626 62.1479 29.262 60.8755 30.1034 60.22C30.6944 59.7595 31.5227 59.7591 32.1141 60.2191L41.9395 67.8611Z" fill="#EAF1EC"/>
<path d="M41.9395 74.8381C42.6616 75.3998 43.6727 75.3999 44.3949 74.8384L54.2117 67.2061C54.7986 66.7498 55.6202 66.7498 56.207 67.2062C57.0436 67.8569 57.0436 69.1213 56.207 69.772L44.3786 78.9719C43.6564 79.5336 42.6451 79.5336 41.9229 78.9719L30.1045 69.7798C29.2626 69.125 29.262 67.8526 30.1034 67.197C30.6944 66.7365 31.5227 66.7362 32.1141 67.1962L41.9395 74.8381Z" fill="#EAF1EC"/>
<path d="M44.3792 65.0177C43.6567 65.5795 42.6451 65.5791 41.923 65.0169L31.1248 56.6102L30.4826 56.1129C29.45 55.3133 29.4484 53.7547 30.4792 52.9529L41.9229 44.0523C42.6451 43.4906 43.6564 43.4906 44.3786 44.0523L55.8285 52.9577C56.8574 53.758 56.8581 55.3129 55.8298 56.1141L55.1931 56.6102L44.3792 65.0177Z" fill="#EAF1EC"/>
</svg>
