<svg width="21" height="18" viewBox="0 0 21 18" fill="none" xmlns="http://www.w3.org/2000/svg">
<path fill-rule="evenodd" clip-rule="evenodd" d="M0 2C0 0.89543 0.89543 0 2 0H19C20.1046 0 21 0.89543 21 2V16C21 17.1046 20.1046 18 19 18H2C0.89543 18 0 17.1046 0 16V2ZM2 14.4142V16H19V14.4942L11.6438 8.86884L9.25926 11.6508C8.90842 12.0601 8.29627 12.1176 7.87531 11.7809L6.07422 10.34L2 14.4142ZM19 11.9764V2H2V11.5858L5.29289 8.29289C5.6532 7.93259 6.2268 7.90082 6.62469 8.21913L8.36985 9.61525L10.7407 6.84921C11.0861 6.44633 11.6859 6.38331 12.1075 6.70564L19 11.9764ZM5.75 5.5C5.88807 5.5 6 5.38807 6 5.25C6 5.11193 5.88807 5 5.75 5C5.61193 5 5.5 5.11193 5.5 5.25C5.5 5.38807 5.61193 5.5 5.75 5.5ZM4 5.25C4 4.2835 4.7835 3.5 5.75 3.5C6.7165 3.5 7.5 4.2835 7.5 5.25C7.5 6.2165 6.7165 7 5.75 7C4.7835 7 4 6.2165 4 5.25Z" fill="#60944C"/>
</svg>
