<svg width="64" height="64" viewBox="0 0 64 64" fill="none" xmlns="http://www.w3.org/2000/svg">
<path d="M0 63.7921V0H63.5C63.5 0 64.2227 17.0867 60.5 27C57.5674 34.8091 54.6825 38.8933 49 45C41.7912 52.7469 36.3914 56.3396 26.5 60.1C16.7331 63.813 0 63.7921 0 63.7921Z" fill="#60944C"/>
<path d="M16.2929 25.2929C15.9024 25.6834 15.9024 26.3166 16.2929 26.7071L22.6569 33.0711C23.0474 33.4616 23.6805 33.4616 24.0711 33.0711C24.4616 32.6805 24.4616 32.0474 24.0711 31.6569L18.4142 26L24.0711 20.3431C24.4616 19.9526 24.4616 19.3195 24.0711 18.9289C23.6805 18.5384 23.0474 18.5384 22.6569 18.9289L16.2929 25.2929ZM37 25H28.6667V27H37V25ZM28.6667 25L17 25V27L28.6667 27V25Z" fill="#EAF1EC"/>
</svg>
