<svg width="20" height="20" viewBox="0 0 20 20" fill="none" xmlns="http://www.w3.org/2000/svg">
<path fill-rule="evenodd" clip-rule="evenodd" d="M5.68398 0.051588C6.20793 -0.12306 6.77425 0.1601 6.9489 0.684044L7.4489 2.18404C7.48385 2.28891 7.50047 2.39547 7.50048 2.50024C9.0004 2.50024 10.5003 2.50024 12.0002 2.50024C12.5525 2.50024 13.0002 2.94796 13.0002 3.50024C13.0002 4.05253 12.5525 4.50024 12.0002 4.50024H10.7735C10.6482 4.93918 10.4618 5.53346 10.2069 6.19797C9.68627 7.55581 8.84391 9.30462 7.58285 10.5915L7.57894 10.5954C7.56403 10.6106 7.54906 10.6258 7.53405 10.641C8.42537 11.2265 9.44441 11.7606 10.3346 12.1843C10.9114 12.4588 11.4207 12.6807 11.7849 12.8337C11.9751 12.9135 12.1657 12.9923 12.3581 13.0665C12.4169 13.089 12.4723 13.1165 12.5241 13.1483L14.0848 9.59784C14.2444 9.2347 14.6035 9.00024 15.0002 9.00024C15.3969 9.00024 15.7561 9.2347 15.9157 9.59784L18.7699 16.0911L19.9097 18.5845C20.1393 19.0868 19.9183 19.6801 19.416 19.9097C18.9137 20.1393 18.3204 19.9183 18.0907 19.416L17.215 17.5002H12.7855L11.9097 19.416C11.6801 19.9183 11.0867 20.1393 10.5845 19.9097C10.0822 19.6801 9.86112 19.0868 10.0907 18.5845L11.2306 16.0911L11.7268 14.9622C11.6985 14.9541 11.6702 14.9447 11.6422 14.934C11.4302 14.8525 11.2201 14.7657 11.0107 14.6777C10.6242 14.5155 10.0857 14.2808 9.47504 13.9902C8.41913 13.4876 7.10512 12.7978 5.98618 12.0061C5.1764 12.6421 4.34278 13.2018 3.62544 13.65C3.01324 14.0324 2.47322 14.3413 2.08521 14.5551C1.8764 14.6701 1.66657 14.7836 1.45389 14.8914L1.45007 14.8933C0.95665 15.1415 0.354914 14.9429 0.106806 14.4495C-0.141272 13.9561 0.0575125 13.3551 0.550797 13.1069L0.551825 13.1064C1.24183 12.7566 1.90994 12.3635 2.56579 11.9538C3.16216 11.5812 3.81825 11.1424 4.45579 10.6605C3.73625 9.85501 3.20576 8.97121 2.83395 8.23245C2.56243 7.69297 2.36631 7.21224 2.23729 6.86408C2.17263 6.68961 2.12443 6.54737 2.09172 6.44641C2.07356 6.39037 2.0558 6.33418 2.03944 6.2776L2.03886 6.27561C1.88709 5.74459 2.19438 5.19055 2.7254 5.03877C3.2559 4.88715 3.80885 5.19384 3.96126 5.7239L3.96158 5.72501L3.96206 5.72662C4.00683 5.87583 4.05852 6.02303 4.11265 6.16908C4.22129 6.46223 4.38866 6.8728 4.62044 7.33332C4.95514 7.99833 5.40599 8.73098 5.98056 9.3651C6.0395 9.30754 6.09747 9.24971 6.15438 9.19164L6.15779 9.18817C7.13186 8.19253 7.85419 6.74758 8.33953 5.48189C8.47546 5.12742 8.58995 4.79465 8.68411 4.50024H1.00021C0.447929 4.50024 0.000213623 4.05253 0.000213623 3.50024C0.000213623 2.94796 0.447929 2.50024 1.00021 2.50024H5.44611L5.05153 1.3165C4.87688 0.792556 5.16004 0.226236 5.68398 0.051588ZM13.675 15.5002H16.3255L15.0002 12.4853L13.675 15.5002Z" fill="#60944C"/>
</svg>
