<svg width="22" height="22" viewBox="0 0 22 22" fill="none" xmlns="http://www.w3.org/2000/svg">
<path fill-rule="evenodd" clip-rule="evenodd" d="M8.5 2C7.39543 2 6.5 2.89543 6.5 4V5C6.5 5.55228 6.05228 6 5.5 6H2V10H3C5.20914 10 7 11.7909 7 14C7 16.2091 5.20914 18 3 18H2V20H15V17C15 16.4477 15.4477 16 16 16H18C19.1046 16 20 15.1046 20 14C20 12.8954 19.1046 12 18 12H16C15.4477 12 15 11.5523 15 11V6H11.5C10.9477 6 10.5 5.55228 10.5 5V4C10.5 2.89543 9.60457 2 8.5 2ZM4.5 4C4.5 1.79086 6.29086 0 8.5 0C10.7091 0 12.5 1.79086 12.5 4H16C16.5523 4 17 4.44772 17 5V10H18C20.2091 10 22 11.7909 22 14C22 16.2091 20.2091 18 18 18H17V21C17 21.5523 16.5523 22 16 22H1C0.447715 22 0 21.5523 0 21V17C0 16.4477 0.447715 16 1 16H3C4.10457 16 5 15.1046 5 14C5 12.8954 4.10457 12 3 12H1C0.447715 12 0 11.5523 0 11V5C0 4.44772 0.447715 4 1 4H4.5Z" fill="#60944C"/>
</svg>
