<svg width="22" height="14" viewBox="0 0 22 14" fill="none" xmlns="http://www.w3.org/2000/svg">
<path fill-rule="evenodd" clip-rule="evenodd" d="M0 1C0 0.447715 0.447715 0 1 0H21C21.5523 0 22 0.447715 22 1V13C22 13.5523 21.5523 14 21 14H1C0.447715 14 0 13.5523 0 13V1ZM2 5.89998V8.10002C3.95913 8.4977 5.5023 10.0409 5.89998 12H16.1C16.4977 10.0409 18.0409 8.4977 20 8.10002V5.89998C18.0409 5.5023 16.4977 3.95914 16.1 2H5.89998C5.5023 3.95914 3.95913 5.5023 2 5.89998ZM3.8293 2H2V3.8293C2.85242 3.52801 3.52801 2.85242 3.8293 2ZM18.1707 2C18.472 2.85242 19.1476 3.52801 20 3.8293V2H18.1707ZM20 10.1707C19.1476 10.472 18.472 11.1476 18.1707 12H20V10.1707ZM3.8293 12C3.52801 11.1476 2.85242 10.472 2 10.1707V12H3.8293ZM7.5 7C7.5 4.96932 8.90405 3 11 3C13.096 3 14.5 4.96932 14.5 7C14.5 9.03068 13.096 11 11 11C8.90405 11 7.5 9.03068 7.5 7ZM11 5C10.3346 5 9.5 5.71698 9.5 7C9.5 8.28302 10.3346 9 11 9C11.6654 9 12.5 8.28302 12.5 7C12.5 5.71698 11.6654 5 11 5Z" fill="#60944C"/>
</svg>
