<svg width="20" height="19" viewBox="0 0 20 19" fill="none" xmlns="http://www.w3.org/2000/svg">
<path fill-rule="evenodd" clip-rule="evenodd" d="M16.7832 3.5183C15.2745 1.72023 12.5938 1.4857 10.7957 2.99446L3.5183 9.10096L2.87551 8.33492L3.51829 9.10096C1.72023 10.6097 1.4857 13.2904 2.99446 15.0885C4.50322 16.8866 7.18391 17.1211 8.98199 15.6123C8.982 15.6123 8.982 15.6123 8.982 15.6123L16.2594 9.50582L16.2594 9.50582C18.0575 7.99707 18.292 5.31638 16.7832 3.51831L16.7832 3.5183ZM9.51015 1.46237C12.1544 -0.756393 16.0966 -0.411497 18.3153 2.23273C20.5341 4.87696 20.1892 8.81917 17.545 11.0379L10.2676 17.1444L9.62478 16.3784L10.2676 17.1444C7.62335 19.3632 3.68114 19.0183 1.46237 16.3741L2.22841 15.7313L1.46237 16.3741C-0.756391 13.7298 -0.411496 9.78763 2.23272 7.56887C2.23272 7.56887 2.23272 7.56887 2.23272 7.56887L9.51014 1.46237L10.1529 2.22841L9.51015 1.46237ZM7.0904 7.46837C7.51348 7.11337 8.14423 7.16856 8.49923 7.59163L11.368 11.0106C11.723 11.4337 11.6678 12.0644 11.2448 12.4194C10.8217 12.7744 10.1909 12.7192 9.83593 12.2961L6.96713 8.8772C6.61214 8.45412 6.66732 7.82337 7.0904 7.46837Z" fill="#60944C"/>
</svg>
