<svg width="22" height="22" viewBox="0 0 22 22" fill="none" xmlns="http://www.w3.org/2000/svg">
<path fill-rule="evenodd" clip-rule="evenodd" d="M0 11C0 4.92487 4.92487 0 11 0C17.0751 0 22 4.92487 22 11C22 11.2652 21.8946 11.5196 21.7071 11.7071L11.7071 21.7071C11.3166 22.0976 10.6834 22.0976 10.2929 21.7071L0.292893 11.7071C0.105357 11.5196 0 11.2652 0 11ZM2.26501 8.82328C2.29682 8.80448 2.32846 8.7861 2.35992 8.76812C2.94541 8.43356 3.56976 8.18182 4.18182 8.18182C4.79388 8.18182 5.41823 8.43356 6.00372 8.76812C6.41526 9.00329 6.85742 9.30868 7.32846 9.67733C8.46519 8.73022 9.69115 8.18182 11 8.18182C12.3089 8.18182 13.5348 8.73022 14.6715 9.67733C15.1426 9.30868 15.5847 9.00329 15.9963 8.76812C16.5818 8.43356 17.2061 8.18182 17.8182 8.18182C18.4302 8.18182 19.0546 8.43356 19.6401 8.76812C19.6715 8.7861 19.7032 8.80449 19.735 8.82328C18.7616 4.90439 15.22 2 11 2C6.78002 2 3.23839 4.90439 2.26501 8.82328ZM19.5064 11.0793C19.1857 10.8389 18.8998 10.6486 18.6478 10.5046C18.1727 10.2331 17.9132 10.1818 17.8182 10.1818C17.7232 10.1818 17.4637 10.2331 16.9886 10.5046C16.5786 10.7389 16.0788 11.0958 15.4853 11.5915L13.4802 17.1056L19.5064 11.0793ZM11 18.0738L13.4704 11.2804C12.5542 10.4933 11.733 10.1818 11 10.1818C10.267 10.1818 9.44583 10.4933 8.52965 11.2804L11 18.0738ZM6.51467 11.5915C5.92117 11.0958 5.42143 10.7389 5.01144 10.5046C4.53631 10.2331 4.27683 10.1818 4.18182 10.1818C4.08681 10.1818 3.82732 10.2331 3.3522 10.5046C3.1002 10.6486 2.81429 10.8389 2.49355 11.0793L8.51978 17.1056L6.51467 11.5915Z" fill="#60944C"/>
</svg>
