<svg width="24" height="26" viewBox="0 0 24 26" fill="none" xmlns="http://www.w3.org/2000/svg">
<path d="M11.027 8.2108C11.027 8.04123 10.8293 7.9486 10.699 8.05716L4.98336 12.8202C4.88775 12.8999 4.88735 13.0466 4.98252 13.1268L10.6982 17.9427C10.8282 18.0523 11.027 17.9599 11.027 17.7898V14.2108C11.027 14.1004 11.1166 14.0108 11.227 14.0108L23.8 14.0108C23.9105 14.0108 24 13.9213 24 13.8108V12.1351C24 12.0247 23.9105 11.9351 23.8 11.9351L11.227 11.9351C11.1166 11.9351 11.027 11.8456 11.027 11.7351V8.2108Z" fill="#EAF1EC"/>
<path d="M2.88288 25.946L15.8559 25.946C17.4458 25.946 18.7387 24.653 18.7387 23.0631V17.4973C18.7387 17.3868 18.6492 17.2973 18.5387 17.2973H16.8054C16.6949 17.2973 16.6054 17.3868 16.6054 17.4973V23.6703C16.6054 23.7807 16.5159 23.8703 16.4054 23.8703L2.27568 23.8703C2.16522 23.8703 2.07568 23.7807 2.07568 23.6703L2.07568 2.27568C2.07568 2.16523 2.16522 2.07569 2.27568 2.07569L16.4054 2.07569C16.5159 2.07569 16.6054 2.16523 16.6054 2.27568L16.6054 8.44866C16.6054 8.55911 16.6949 8.64866 16.8054 8.64866H18.5387C18.6492 8.64866 18.7387 8.55911 18.7387 8.44866L18.7387 2.88289C18.7387 1.29298 17.4458 7.62939e-06 15.8559 7.62939e-06L2.88288 7.62939e-06C1.29297 7.62939e-06 1.90735e-06 1.29298 1.90735e-06 2.88289L1.90735e-06 23.0631C1.90735e-06 24.653 1.29297 25.946 2.88288 25.946Z" fill="#EAF1EC"/>
</svg>
