<svg width="22" height="22" viewBox="0 0 22 22" fill="none" xmlns="http://www.w3.org/2000/svg">
<path fill-rule="evenodd" clip-rule="evenodd" d="M0 11C0 4.92487 4.92487 0 11 0C17.0751 0 22 4.92487 22 11C22 12.0949 21.3699 12.8065 20.6274 13.2367C19.9416 13.6341 19.0698 13.8521 18.2978 14.0192C18.0516 14.0725 17.8132 14.1211 17.582 14.1683C17.0286 14.2813 16.5158 14.3859 16.0325 14.5265C15.3393 14.7281 14.9419 14.9448 14.7485 15.1631L14 14.5L14.7485 15.1631C14.4627 15.4858 14.2793 15.9464 14.1598 16.5749C14.0746 17.0233 14.0347 17.4642 13.9915 17.9424C13.9715 18.1633 13.9509 18.3923 13.9246 18.6335C13.8511 19.3103 13.7287 20.1405 13.3181 20.8024C13.0977 21.1576 12.791 21.4727 12.3731 21.6915C11.9608 21.9073 11.4965 22 11 22C4.92487 22 0 17.0751 0 11ZM11 2C6.02943 2 2 6.02943 2 11C2 15.9706 6.02943 20 11 20C11.2486 20 11.3794 19.9542 11.4456 19.9196C11.5062 19.8879 11.5611 19.8406 11.6186 19.748C11.7636 19.5143 11.8614 19.1072 11.9364 18.4175C11.9544 18.2517 11.9711 18.0669 11.989 17.8703C12.0361 17.3513 12.0906 16.7502 12.195 16.2013C12.3441 15.4171 12.6213 14.5482 13.2515 13.8369C13.8397 13.1729 14.7081 12.8288 15.4739 12.6061C16.0411 12.4411 16.6803 12.3107 17.2643 12.1914C17.4771 12.148 17.6826 12.1061 17.8746 12.0645C18.6572 11.8951 19.2423 11.7278 19.6248 11.5062C19.9505 11.3175 20 11.1765 20 11C20 6.02943 15.9706 2 11 2ZM10.5 6C10.5 4.61927 11.6193 3.5 13 3.5C14.3807 3.5 15.5 4.61927 15.5 6C15.5 7.38073 14.3807 8.5 13 8.5C11.6193 8.5 10.5 7.38073 10.5 6ZM13 5.5C12.7238 5.5 12.5 5.72383 12.5 6C12.5 6.27617 12.7238 6.5 13 6.5C13.2762 6.5 13.5 6.27617 13.5 6C13.5 5.72383 13.2762 5.5 13 5.5ZM4.5 8C4.5 6.61927 5.61927 5.5 7 5.5C8.38074 5.5 9.5 6.61927 9.5 8C9.5 9.38073 8.38074 10.5 7 10.5C5.61927 10.5 4.5 9.38073 4.5 8ZM7 7.5C6.72383 7.5 6.5 7.72383 6.5 8C6.5 8.27617 6.72383 8.5 7 8.5C7.27617 8.5 7.5 8.27617 7.5 8C7.5 7.72383 7.27617 7.5 7 7.5ZM5 14.5C5 13.1193 6.11927 12 7.5 12C8.88074 12 10 13.1193 10 14.5C10 15.8807 8.88074 17 7.5 17C6.11927 17 5 15.8807 5 14.5ZM7.5 14C7.22383 14 7 14.2238 7 14.5C7 14.7762 7.22383 15 7.5 15C7.77617 15 8 14.7762 8 14.5C8 14.2238 7.77617 14 7.5 14Z" fill="#60944C"/>
</svg>
