<svg width="22" height="22" viewBox="0 0 22 22" fill="none" xmlns="http://www.w3.org/2000/svg">
<path fill-rule="evenodd" clip-rule="evenodd" d="M15.0002 1C15.0002 0.447715 15.448 0 16.0002 0H21.0002C21.464 0 21.8669 0.318876 21.9735 0.770247C22.08 1.22162 21.8623 1.68702 21.4475 1.89443L5.44745 9.89443C5.23394 10.0012 4.98928 10.028 4.7577 9.97014L0.757701 8.97014C0.221906 8.83619 -0.103855 8.29326 0.0300941 7.75746C0.164043 7.22167 0.706977 6.89591 1.24277 7.02986L4.88389 7.94014L16.7642 2H16.0002C15.448 2 15.0002 1.55228 15.0002 1ZM21.526 4.14935C21.8208 4.33156 22.0002 4.65342 22.0002 5V18C22.0002 18.5523 21.5525 19 21.0002 19H17.0002C16.448 19 16.0002 18.5523 16.0002 18V7C16.0002 6.62123 16.2142 6.27496 16.553 6.10557L20.553 4.10557C20.863 3.95058 21.2312 3.96714 21.526 4.14935ZM18.0002 7.61803V17H20.0002V6.61803L18.0002 7.61803ZM13.526 8.14935C13.8208 8.33156 14.0002 8.65342 14.0002 9V18C14.0002 18.5523 13.5525 19 13.0002 19H9.00024C8.44795 19 8.00024 18.5523 8.00024 18V11C8.00024 10.6212 8.21424 10.275 8.55302 10.1056L12.553 8.10557C12.863 7.95058 13.2312 7.96714 13.526 8.14935ZM10.0002 11.618V17H12.0002V10.618L10.0002 11.618ZM0.384824 11.2118C0.627541 11.0223 0.944031 10.9552 1.24277 11.0299L5.24277 12.0299C5.68794 12.1411 6.00024 12.5411 6.00024 13V18C6.00024 18.5523 5.55252 19 5.00024 19H1.00024C0.447952 19 0.00023656 18.5523 0.00023656 18V12C0.00023656 11.6921 0.142108 11.4013 0.384824 11.2118ZM2.00024 13.2808V17H4.00024V13.7808L2.00024 13.2808ZM0.00023656 21C0.00023656 20.4477 0.447952 20 1.00024 20H21.0002C21.5525 20 22.0002 20.4477 22.0002 21C22.0002 21.5523 21.5525 22 21.0002 22H1.00024C0.447952 22 0.00023656 21.5523 0.00023656 21Z" fill="#60944C"/>
</svg>
